G04*
G04 #@! TF.GenerationSoftware,Altium Limited,Altium Designer,20.0.11 (256)*
G04*
G04 Layer_Color=16711935*
%FSLAX25Y25*%
%MOIN*%
G70*
G01*
G75*
%ADD10C,0.00787*%
G36*
X84378Y19196D02*
X84407Y19193D01*
X84436Y19189D01*
X84512Y19174D01*
X84592Y19153D01*
X84676Y19120D01*
X84720Y19098D01*
X84760Y19073D01*
X84796Y19044D01*
X84833Y19011D01*
X84836Y19007D01*
X84840Y19004D01*
X84847Y18989D01*
X84858Y18974D01*
X84873Y18956D01*
X84887Y18931D01*
X84902Y18902D01*
X84920Y18869D01*
X84935Y18832D01*
X84949Y18789D01*
X84964Y18745D01*
X84978Y18694D01*
X84986Y18640D01*
X84996Y18578D01*
X85000Y18516D01*
Y18447D01*
X84698Y18403D01*
Y18406D01*
Y18414D01*
Y18428D01*
X84694Y18450D01*
X84691Y18472D01*
Y18497D01*
X84680Y18559D01*
X84669Y18625D01*
X84647Y18690D01*
X84625Y18749D01*
X84611Y18774D01*
X84592Y18796D01*
X84589Y18800D01*
X84574Y18811D01*
X84552Y18829D01*
X84523Y18847D01*
X84483Y18869D01*
X84439Y18883D01*
X84385Y18898D01*
X84327Y18902D01*
X84305D01*
X84283Y18898D01*
X84250Y18894D01*
X84217Y18887D01*
X84181Y18880D01*
X84145Y18865D01*
X84108Y18847D01*
X84105Y18843D01*
X84094Y18836D01*
X84079Y18822D01*
X84057Y18807D01*
X84039Y18781D01*
X84017Y18756D01*
X83999Y18727D01*
X83985Y18690D01*
Y18687D01*
X83977Y18672D01*
X83974Y18647D01*
X83966Y18614D01*
X83959Y18570D01*
X83955Y18516D01*
X83948Y18450D01*
Y18374D01*
Y16637D01*
X83613D01*
Y18356D01*
Y18359D01*
Y18370D01*
Y18385D01*
Y18406D01*
X83617Y18436D01*
Y18465D01*
X83624Y18534D01*
X83631Y18614D01*
X83646Y18698D01*
X83668Y18774D01*
X83693Y18847D01*
Y18851D01*
X83697Y18854D01*
X83708Y18876D01*
X83726Y18905D01*
X83751Y18945D01*
X83788Y18985D01*
X83828Y19029D01*
X83879Y19073D01*
X83937Y19109D01*
X83944Y19113D01*
X83966Y19124D01*
X83999Y19138D01*
X84046Y19153D01*
X84105Y19171D01*
X84170Y19185D01*
X84243Y19196D01*
X84323Y19200D01*
X84356D01*
X84378Y19196D01*
D02*
G37*
G36*
X82339Y17187D02*
X82343Y17191D01*
X82361Y17205D01*
X82383Y17227D01*
X82419Y17253D01*
X82459Y17285D01*
X82510Y17322D01*
X82569Y17362D01*
X82634Y17402D01*
X82638D01*
X82641Y17405D01*
X82663Y17420D01*
X82700Y17438D01*
X82743Y17460D01*
X82794Y17486D01*
X82849Y17511D01*
X82903Y17537D01*
X82958Y17558D01*
Y17260D01*
X82954D01*
X82947Y17253D01*
X82933Y17249D01*
X82914Y17238D01*
X82893Y17227D01*
X82867Y17213D01*
X82805Y17176D01*
X82732Y17136D01*
X82660Y17085D01*
X82583Y17027D01*
X82507Y16965D01*
X82503Y16961D01*
X82499Y16958D01*
X82488Y16947D01*
X82474Y16936D01*
X82441Y16899D01*
X82397Y16856D01*
X82354Y16805D01*
X82306Y16747D01*
X82266Y16688D01*
X82230Y16627D01*
X82030D01*
Y19156D01*
X82339D01*
Y17187D01*
D02*
G37*
D10*
X6806Y-18944D02*
X163194D01*
X6806D02*
Y57344D01*
X163194D01*
Y-18944D02*
Y57344D01*
M02*
