M48
;Layer_Color=9474304
;FILE_FORMAT=2:5
INCH,LZ
;TYPE=PLATED
T1F00S00C0.02756
T2F00S00C0.04100
T3F00S00C0.11299
T4F00S00C0.12205
T5F00S00C0.12500
%
T01
X0069827Y0115335
X0074827
X0079827
X0084827
X0089827
X0094827
X0099827
X0102327Y0119665
X0097327
X0092327
X0087327
X0082327
X0077327
X0072327
X0067327
T02
X00634Y00384
X00742
X0085
X00958
X01066
X01174
X01228Y00496
X0112
X01012
X00904
X00796
X00688
X0058
X00472
X00526Y00384
T03
X0120654Y01175
X0049
T04
X01506Y0075
X00194
T05
X01506Y0044
X00194
M30
