G04*
G04 #@! TF.GenerationSoftware,Altium Limited,Altium Designer,20.0.11 (256)*
G04*
G04 Layer_Color=65535*
%FSLAX25Y25*%
%MOIN*%
G70*
G01*
G75*
%ADD10C,0.00787*%
%ADD11C,0.00984*%
%ADD12C,0.00394*%
%ADD13C,0.00500*%
%ADD14C,0.01000*%
G36*
X35008Y95666D02*
X35107D01*
Y95566D01*
X35206D01*
Y95666D01*
X35306D01*
Y95566D01*
X35405D01*
Y95467D01*
X35504D01*
Y95566D01*
X35603D01*
Y95467D01*
X35703D01*
Y95368D01*
X36001D01*
Y95268D01*
X36100D01*
Y95169D01*
X36199D01*
Y95070D01*
X36299D01*
Y94971D01*
X36597D01*
Y94871D01*
X36497D01*
Y94772D01*
X36597D01*
Y94673D01*
X36696D01*
Y94573D01*
X36795D01*
Y94474D01*
X36895D01*
Y94375D01*
Y94275D01*
Y94176D01*
X36994D01*
Y94077D01*
Y93977D01*
Y93878D01*
X37093D01*
Y93779D01*
Y93679D01*
Y93580D01*
X36994D01*
Y93679D01*
X36895D01*
Y93580D01*
X36795D01*
Y93480D01*
X36696D01*
Y93580D01*
X36597D01*
Y93480D01*
X36299D01*
Y93381D01*
X36199D01*
Y93480D01*
X36100D01*
Y93381D01*
X36001D01*
Y93282D01*
X35504D01*
Y93183D01*
X35206D01*
Y93083D01*
X34908D01*
Y93183D01*
Y93282D01*
Y93381D01*
X34809D01*
Y93480D01*
X34710D01*
Y93580D01*
X34809D01*
Y93679D01*
X34511D01*
Y93779D01*
X34411D01*
Y93878D01*
X34312D01*
Y93977D01*
X34213D01*
Y93878D01*
X34113D01*
Y93977D01*
X34014D01*
Y93878D01*
X33915D01*
Y93977D01*
X33816D01*
Y93878D01*
X33518D01*
Y93779D01*
X33418D01*
Y93679D01*
X33120D01*
Y93580D01*
X33220D01*
Y93480D01*
X32922D01*
Y93381D01*
X33021D01*
Y93282D01*
X32822D01*
Y93183D01*
Y93083D01*
X32723D01*
Y92984D01*
X32624D01*
Y92885D01*
X32524D01*
Y92785D01*
Y92686D01*
Y92587D01*
X32425D01*
Y92487D01*
X32326D01*
Y92388D01*
X32425D01*
Y92289D01*
X32326D01*
Y92189D01*
X32226D01*
Y92090D01*
Y91991D01*
Y91891D01*
X32127D01*
Y91792D01*
X32226D01*
Y91693D01*
X32127D01*
Y91593D01*
X32028D01*
Y91494D01*
X32127D01*
Y91395D01*
X32028D01*
Y91295D01*
X31928D01*
Y91196D01*
X32028D01*
Y91097D01*
X31928D01*
Y90997D01*
X32028D01*
Y90898D01*
X31928D01*
Y90799D01*
X32028D01*
Y90699D01*
X31928D01*
Y90600D01*
X32028D01*
Y90501D01*
X31928D01*
Y90401D01*
X32028D01*
Y90302D01*
X31928D01*
Y90203D01*
X32028D01*
Y90103D01*
X31928D01*
Y90004D01*
X32028D01*
Y89905D01*
X31928D01*
Y89805D01*
X32028D01*
Y89706D01*
X31928D01*
Y89607D01*
X32028D01*
Y89507D01*
X32127D01*
Y89408D01*
X32226D01*
Y89309D01*
X32326D01*
Y89209D01*
X32624D01*
Y89110D01*
X32723D01*
Y89011D01*
X32822D01*
Y89110D01*
X32723D01*
Y89209D01*
X32822D01*
Y89110D01*
X32922D01*
Y89011D01*
X33021D01*
Y89110D01*
X33120D01*
Y89209D01*
X33418D01*
Y89309D01*
X33518D01*
Y89209D01*
X33617D01*
Y89309D01*
X33518D01*
Y89408D01*
X33816D01*
Y89507D01*
X33716D01*
Y89607D01*
X34014D01*
Y89706D01*
X33915D01*
Y89805D01*
X34014D01*
Y89706D01*
X34113D01*
Y89607D01*
X34213D01*
Y89706D01*
X34113D01*
Y89805D01*
X34213D01*
Y89706D01*
X34312D01*
Y89607D01*
X34411D01*
Y89507D01*
X34511D01*
Y89408D01*
X34610D01*
Y89507D01*
X34511D01*
Y89607D01*
X34610D01*
Y89507D01*
X34710D01*
Y89408D01*
X34809D01*
Y89309D01*
X34908D01*
Y89408D01*
X35008D01*
Y89309D01*
X35107D01*
Y89209D01*
X35405D01*
Y89110D01*
X35504D01*
Y89011D01*
X35603D01*
Y89110D01*
X35703D01*
Y89011D01*
X35802D01*
Y88911D01*
X35703D01*
Y88812D01*
X35603D01*
Y88713D01*
X35504D01*
Y88613D01*
X35405D01*
Y88514D01*
X35306D01*
Y88415D01*
X35206D01*
Y88315D01*
X34908D01*
Y88216D01*
X35008D01*
Y88117D01*
X34710D01*
Y88017D01*
X34610D01*
Y87918D01*
X34511D01*
Y87819D01*
X34411D01*
Y87918D01*
X34312D01*
Y87819D01*
X34411D01*
Y87719D01*
X34312D01*
Y87819D01*
X34213D01*
Y87719D01*
X33915D01*
Y87620D01*
X34014D01*
Y87521D01*
X33915D01*
Y87620D01*
X33816D01*
Y87521D01*
X33319D01*
Y87422D01*
X33418D01*
Y87322D01*
X33319D01*
Y87422D01*
X33021D01*
Y87322D01*
X32922D01*
Y87422D01*
X32822D01*
Y87322D01*
X32524D01*
Y87422D01*
X32425D01*
Y87322D01*
X32127D01*
Y87422D01*
X32028D01*
Y87322D01*
X31928D01*
Y87422D01*
X31829D01*
Y87322D01*
X31730D01*
Y87422D01*
X31630D01*
Y87521D01*
X31134D01*
Y87620D01*
X31034D01*
Y87719D01*
X30736D01*
Y87819D01*
X30637D01*
Y87918D01*
X30538D01*
Y88017D01*
X30438D01*
Y88117D01*
X30339D01*
Y88216D01*
X30240D01*
Y88315D01*
X30140D01*
Y88415D01*
Y88514D01*
Y88613D01*
X30041D01*
Y88713D01*
X29942D01*
Y88812D01*
Y88911D01*
Y89011D01*
X29842D01*
Y89110D01*
Y89209D01*
Y89309D01*
X29743D01*
Y89408D01*
X29842D01*
Y89507D01*
X29743D01*
Y89607D01*
Y89706D01*
Y89805D01*
Y89905D01*
Y90004D01*
Y90103D01*
Y90203D01*
Y90302D01*
Y90401D01*
Y90501D01*
Y90600D01*
X29842D01*
Y90699D01*
X29743D01*
Y90799D01*
X29842D01*
Y90898D01*
X29743D01*
Y90997D01*
X29842D01*
Y91097D01*
X29743D01*
Y91196D01*
X29842D01*
Y91295D01*
X29743D01*
Y91395D01*
X29942D01*
Y91494D01*
Y91593D01*
X30041D01*
Y91693D01*
X29942D01*
Y91792D01*
X30041D01*
Y91891D01*
X29942D01*
Y91991D01*
X30041D01*
Y92090D01*
X30140D01*
Y92189D01*
X30240D01*
Y92289D01*
X30140D01*
Y92388D01*
X30240D01*
Y92487D01*
X30140D01*
Y92587D01*
X30240D01*
Y92686D01*
X30339D01*
Y92785D01*
X30438D01*
Y92885D01*
X30339D01*
Y92984D01*
X30438D01*
Y93083D01*
X30538D01*
Y93183D01*
X30637D01*
Y93282D01*
X30538D01*
Y93381D01*
X30637D01*
Y93480D01*
X30736D01*
Y93580D01*
X30836D01*
Y93679D01*
Y93779D01*
X31034D01*
Y93878D01*
X30935D01*
Y93977D01*
X31034D01*
Y94077D01*
X31134D01*
Y94176D01*
X31233D01*
Y94275D01*
X31332D01*
Y94375D01*
X31432D01*
Y94474D01*
X31531D01*
Y94573D01*
X31630D01*
Y94673D01*
X31730D01*
Y94573D01*
X31829D01*
Y94673D01*
X31730D01*
Y94772D01*
X31829D01*
Y94871D01*
X31928D01*
Y94772D01*
X32028D01*
Y94871D01*
X31928D01*
Y94971D01*
X32226D01*
Y95070D01*
X32326D01*
Y95169D01*
X32624D01*
Y95268D01*
X32723D01*
Y95368D01*
X33021D01*
Y95467D01*
X33120D01*
Y95368D01*
X33220D01*
Y95467D01*
X33120D01*
Y95566D01*
X33220D01*
Y95467D01*
X33319D01*
Y95566D01*
X33617D01*
Y95666D01*
X33716D01*
Y95566D01*
X33816D01*
Y95666D01*
X33915D01*
Y95566D01*
X34014D01*
Y95666D01*
X34113D01*
Y95765D01*
X34213D01*
Y95666D01*
X34312D01*
Y95566D01*
X34411D01*
Y95666D01*
X34312D01*
Y95765D01*
X34411D01*
Y95666D01*
X34511D01*
Y95765D01*
X34610D01*
Y95666D01*
X34710D01*
Y95566D01*
X34809D01*
Y95666D01*
X34710D01*
Y95765D01*
X34809D01*
Y95666D01*
X34908D01*
Y95566D01*
X35008D01*
Y95666D01*
X34908D01*
Y95765D01*
X35008D01*
Y95666D01*
D02*
G37*
G36*
X16135Y95467D02*
X16234D01*
Y95368D01*
X16334D01*
Y95268D01*
X16234D01*
Y95169D01*
X16135D01*
Y95070D01*
Y94971D01*
Y94871D01*
X16036D01*
Y94772D01*
X16135D01*
Y94673D01*
X16036D01*
Y94573D01*
X16135D01*
Y94474D01*
X16036D01*
Y94375D01*
X15936D01*
Y94275D01*
X15837D01*
Y94176D01*
X15936D01*
Y94077D01*
X15837D01*
Y93977D01*
X15936D01*
Y93878D01*
X15837D01*
Y93779D01*
X15936D01*
Y93679D01*
X15837D01*
Y93580D01*
X15738D01*
Y93480D01*
X15837D01*
Y93381D01*
X15738D01*
Y93282D01*
X15638D01*
Y93183D01*
X15738D01*
Y93083D01*
X15638D01*
Y92984D01*
X15738D01*
Y92885D01*
X15638D01*
Y92785D01*
X15539D01*
Y92686D01*
X15638D01*
Y92587D01*
X15539D01*
Y92686D01*
X15440D01*
Y92587D01*
X15539D01*
Y92487D01*
X15440D01*
Y92388D01*
X15539D01*
Y92289D01*
X15440D01*
Y92189D01*
X15539D01*
Y92090D01*
X15440D01*
Y91991D01*
Y91891D01*
Y91792D01*
X15340D01*
Y91693D01*
X15241D01*
Y91593D01*
X15340D01*
Y91494D01*
X15241D01*
Y91395D01*
X15340D01*
Y91295D01*
X15241D01*
Y91196D01*
X15142D01*
Y91097D01*
Y90997D01*
Y90898D01*
Y90799D01*
Y90699D01*
X15042D01*
Y90600D01*
Y90501D01*
Y90401D01*
X14943D01*
Y90302D01*
X14844D01*
Y90203D01*
X14943D01*
Y90103D01*
X14844D01*
Y90004D01*
X14744D01*
Y89905D01*
X14645D01*
Y89805D01*
X14744D01*
Y89706D01*
X14645D01*
Y89607D01*
X14546D01*
Y89507D01*
X14446D01*
Y89408D01*
X14546D01*
Y89309D01*
X14347D01*
Y89209D01*
Y89110D01*
X14248D01*
Y89011D01*
X14148D01*
Y88911D01*
X14049D01*
Y88812D01*
X13950D01*
Y88713D01*
X13850D01*
Y88613D01*
X13751D01*
Y88514D01*
X13652D01*
Y88415D01*
X13552D01*
Y88315D01*
X13453D01*
Y88216D01*
X13354D01*
Y88117D01*
X13056D01*
Y88017D01*
X12957D01*
Y87918D01*
X12857D01*
Y87819D01*
X12758D01*
Y87918D01*
X12659D01*
Y87819D01*
X12758D01*
Y87719D01*
X12659D01*
Y87819D01*
X12559D01*
Y87719D01*
X12460D01*
Y87620D01*
X12360D01*
Y87719D01*
X12261D01*
Y87620D01*
X12162D01*
Y87521D01*
X12062D01*
Y87620D01*
X11963D01*
Y87521D01*
X11665D01*
Y87422D01*
X11566D01*
Y87521D01*
X11467D01*
Y87422D01*
X11566D01*
Y87322D01*
X11467D01*
Y87422D01*
X11367D01*
Y87322D01*
X11268D01*
Y87422D01*
X11169D01*
Y87322D01*
X11069D01*
Y87422D01*
X10970D01*
Y87322D01*
X10672D01*
Y87422D01*
X10573D01*
Y87322D01*
X10275D01*
Y87422D01*
X10175D01*
Y87322D01*
X10076D01*
Y87422D01*
X9977D01*
Y87521D01*
X9877D01*
Y87422D01*
X9977D01*
Y87322D01*
X9877D01*
Y87422D01*
X9778D01*
Y87521D01*
X9281D01*
Y87620D01*
X9182D01*
Y87719D01*
X8884D01*
Y87819D01*
X8785D01*
Y87918D01*
X8685D01*
Y88017D01*
X8586D01*
Y88117D01*
X8487D01*
Y88216D01*
X8387D01*
Y88315D01*
X8288D01*
Y88415D01*
X8189D01*
Y88514D01*
X8089D01*
Y88613D01*
X8189D01*
Y88713D01*
X8089D01*
Y88812D01*
X7990D01*
Y88911D01*
X7891D01*
Y89011D01*
X7990D01*
Y89110D01*
X7891D01*
Y89209D01*
X7990D01*
Y89309D01*
X7891D01*
Y89408D01*
X7990D01*
Y89507D01*
X7891D01*
Y89607D01*
X7791D01*
Y89706D01*
X7891D01*
Y89805D01*
X7791D01*
Y89905D01*
X7891D01*
Y90004D01*
X7791D01*
Y90103D01*
X7891D01*
Y90203D01*
X7791D01*
Y90302D01*
X7891D01*
Y90401D01*
X7791D01*
Y90501D01*
X7891D01*
Y90600D01*
X7990D01*
Y90699D01*
X7891D01*
Y90799D01*
X7990D01*
Y90898D01*
X7891D01*
Y90997D01*
X7990D01*
Y91097D01*
X7891D01*
Y91196D01*
X7990D01*
Y91295D01*
X7891D01*
Y91395D01*
X7990D01*
Y91494D01*
X8089D01*
Y91593D01*
X8189D01*
Y91693D01*
X8089D01*
Y91792D01*
X8189D01*
Y91891D01*
X8089D01*
Y91991D01*
X8189D01*
Y92090D01*
Y92189D01*
Y92289D01*
X8288D01*
Y92189D01*
X8387D01*
Y92289D01*
X8288D01*
Y92388D01*
Y92487D01*
Y92587D01*
X8387D01*
Y92686D01*
X8288D01*
Y92785D01*
X8387D01*
Y92885D01*
X8288D01*
Y92984D01*
X8387D01*
Y93083D01*
X8487D01*
Y93183D01*
Y93282D01*
Y93381D01*
X8586D01*
Y93480D01*
X8487D01*
Y93580D01*
X8586D01*
Y93679D01*
Y93779D01*
Y93878D01*
X8685D01*
Y93977D01*
Y94077D01*
Y94176D01*
X8785D01*
Y94275D01*
X8685D01*
Y94375D01*
X8785D01*
Y94474D01*
Y94573D01*
Y94673D01*
X8884D01*
Y94772D01*
Y94871D01*
Y94971D01*
X8983D01*
Y95070D01*
X8884D01*
Y95169D01*
X8983D01*
Y95268D01*
Y95368D01*
Y95467D01*
X9083D01*
Y95368D01*
X9182D01*
Y95467D01*
X9083D01*
Y95566D01*
X9182D01*
Y95467D01*
X9281D01*
Y95368D01*
X9381D01*
Y95467D01*
X9281D01*
Y95566D01*
X9381D01*
Y95467D01*
X9480D01*
Y95368D01*
X9579D01*
Y95467D01*
X9480D01*
Y95566D01*
X9579D01*
Y95467D01*
X9679D01*
Y95566D01*
X9778D01*
Y95467D01*
X9877D01*
Y95368D01*
X9977D01*
Y95467D01*
X9877D01*
Y95566D01*
X9977D01*
Y95467D01*
X10076D01*
Y95368D01*
X10175D01*
Y95467D01*
X10076D01*
Y95566D01*
X10175D01*
Y95467D01*
X10275D01*
Y95368D01*
X10374D01*
Y95467D01*
X10275D01*
Y95566D01*
X10374D01*
Y95467D01*
X10473D01*
Y95566D01*
X10573D01*
Y95467D01*
X10672D01*
Y95368D01*
X10771D01*
Y95467D01*
X10672D01*
Y95566D01*
X10771D01*
Y95467D01*
X10871D01*
Y95368D01*
X10970D01*
Y95467D01*
X10871D01*
Y95566D01*
X10970D01*
Y95467D01*
X11069D01*
Y95368D01*
X11169D01*
Y95268D01*
X11069D01*
Y95169D01*
X11169D01*
Y95070D01*
X11069D01*
Y94971D01*
X11169D01*
Y94871D01*
X11069D01*
Y94772D01*
X10970D01*
Y94673D01*
X11069D01*
Y94573D01*
X10970D01*
Y94474D01*
X10871D01*
Y94375D01*
X10970D01*
Y94275D01*
X10871D01*
Y94176D01*
X10970D01*
Y94077D01*
X10871D01*
Y93977D01*
X10771D01*
Y93878D01*
X10672D01*
Y93779D01*
X10771D01*
Y93679D01*
X10672D01*
Y93580D01*
X10771D01*
Y93480D01*
X10672D01*
Y93381D01*
X10771D01*
Y93282D01*
X10672D01*
Y93183D01*
Y93083D01*
Y92984D01*
X10573D01*
Y92885D01*
X10473D01*
Y92785D01*
X10573D01*
Y92686D01*
X10473D01*
Y92587D01*
X10573D01*
Y92487D01*
X10473D01*
Y92388D01*
X10374D01*
Y92289D01*
Y92189D01*
Y92090D01*
Y91991D01*
Y91891D01*
X10275D01*
Y91792D01*
X10374D01*
Y91693D01*
X10275D01*
Y91593D01*
Y91494D01*
Y91395D01*
X10175D01*
Y91295D01*
X10076D01*
Y91196D01*
X10175D01*
Y91097D01*
X10076D01*
Y90997D01*
X10175D01*
Y90898D01*
X10076D01*
Y90799D01*
Y90699D01*
Y90600D01*
Y90501D01*
Y90401D01*
X9977D01*
Y90302D01*
Y90203D01*
Y90103D01*
X10076D01*
Y90004D01*
X9977D01*
Y89905D01*
X10076D01*
Y89805D01*
Y89706D01*
Y89607D01*
X10175D01*
Y89507D01*
X10076D01*
Y89408D01*
X10175D01*
Y89309D01*
X10275D01*
Y89209D01*
X10374D01*
Y89309D01*
X10275D01*
Y89408D01*
X10374D01*
Y89309D01*
X10473D01*
Y89209D01*
X10573D01*
Y89110D01*
X10672D01*
Y89011D01*
X10771D01*
Y89110D01*
X10672D01*
Y89209D01*
X10771D01*
Y89110D01*
X10871D01*
Y89011D01*
X10970D01*
Y89110D01*
X10871D01*
Y89209D01*
X10970D01*
Y89110D01*
X11069D01*
Y89011D01*
X11169D01*
Y89110D01*
X11268D01*
Y89209D01*
X11367D01*
Y89110D01*
X11467D01*
Y89011D01*
X11566D01*
Y89110D01*
X11467D01*
Y89209D01*
X11566D01*
Y89110D01*
X11665D01*
Y89209D01*
X11963D01*
Y89309D01*
X11864D01*
Y89408D01*
X11963D01*
Y89309D01*
X12062D01*
Y89408D01*
X12162D01*
Y89507D01*
X12261D01*
Y89607D01*
X12360D01*
Y89706D01*
X12261D01*
Y89805D01*
X12360D01*
Y89706D01*
X12460D01*
Y89805D01*
X12559D01*
Y89905D01*
X12460D01*
Y90004D01*
X12559D01*
Y90103D01*
X12659D01*
Y90203D01*
X12758D01*
Y90302D01*
X12659D01*
Y90401D01*
X12758D01*
Y90501D01*
X12857D01*
Y90600D01*
X12957D01*
Y90699D01*
X12857D01*
Y90799D01*
X12957D01*
Y90898D01*
Y90997D01*
Y91097D01*
X13056D01*
Y90997D01*
X13155D01*
Y91097D01*
X13056D01*
Y91196D01*
Y91295D01*
Y91395D01*
X13155D01*
Y91494D01*
X13056D01*
Y91593D01*
X13155D01*
Y91693D01*
X13056D01*
Y91792D01*
X13155D01*
Y91891D01*
X13254D01*
Y91991D01*
Y92090D01*
Y92189D01*
X13354D01*
Y92289D01*
X13254D01*
Y92388D01*
X13354D01*
Y92487D01*
Y92587D01*
Y92686D01*
X13453D01*
Y92785D01*
Y92885D01*
Y92984D01*
X13552D01*
Y93083D01*
X13453D01*
Y93183D01*
X13552D01*
Y93282D01*
X13453D01*
Y93381D01*
X13552D01*
Y93480D01*
X13652D01*
Y93580D01*
Y93679D01*
Y93779D01*
X13751D01*
Y93878D01*
X13652D01*
Y93977D01*
X13751D01*
Y94077D01*
Y94176D01*
Y94275D01*
X13850D01*
Y94375D01*
Y94474D01*
Y94573D01*
X13950D01*
Y94673D01*
X13850D01*
Y94772D01*
X13950D01*
Y94871D01*
X13850D01*
Y94971D01*
X13950D01*
Y95070D01*
X14049D01*
Y95169D01*
X13950D01*
Y95268D01*
X14049D01*
Y95368D01*
X14148D01*
Y95467D01*
X14049D01*
Y95566D01*
X14148D01*
Y95467D01*
X14248D01*
Y95368D01*
X14347D01*
Y95467D01*
X14248D01*
Y95566D01*
X14347D01*
Y95467D01*
X14446D01*
Y95566D01*
X14546D01*
Y95467D01*
X14645D01*
Y95368D01*
X14744D01*
Y95467D01*
X14645D01*
Y95566D01*
X14744D01*
Y95467D01*
X14844D01*
Y95368D01*
X14943D01*
Y95467D01*
X14844D01*
Y95566D01*
X14943D01*
Y95467D01*
X15042D01*
Y95368D01*
X15142D01*
Y95467D01*
X15042D01*
Y95566D01*
X15142D01*
Y95467D01*
X15241D01*
Y95566D01*
X15340D01*
Y95467D01*
X15440D01*
Y95368D01*
X15539D01*
Y95467D01*
X15440D01*
Y95566D01*
X15539D01*
Y95467D01*
X15638D01*
Y95368D01*
X15738D01*
Y95467D01*
X15638D01*
Y95566D01*
X15738D01*
Y95467D01*
X15837D01*
Y95368D01*
X15936D01*
Y95467D01*
X15837D01*
Y95566D01*
X15936D01*
Y95467D01*
X16036D01*
Y95566D01*
X16135D01*
Y95467D01*
D02*
G37*
G36*
X24479D02*
X24578D01*
Y95368D01*
X24677D01*
Y95467D01*
X24777D01*
Y95368D01*
X25273D01*
Y95268D01*
X25373D01*
Y95169D01*
X25671D01*
Y95070D01*
X25770D01*
Y94971D01*
X25869D01*
Y94871D01*
X25969D01*
Y94772D01*
X26068D01*
Y94673D01*
Y94573D01*
X26267D01*
Y94474D01*
X26167D01*
Y94375D01*
X26267D01*
Y94275D01*
X26167D01*
Y94176D01*
X26366D01*
Y94077D01*
Y93977D01*
Y93878D01*
Y93779D01*
Y93679D01*
Y93580D01*
Y93480D01*
Y93381D01*
Y93282D01*
Y93183D01*
X26267D01*
Y93083D01*
X26167D01*
Y92984D01*
X26267D01*
Y92885D01*
X26167D01*
Y92785D01*
X26068D01*
Y92686D01*
X25969D01*
Y92587D01*
X26068D01*
Y92487D01*
X25969D01*
Y92388D01*
X25869D01*
Y92289D01*
X25770D01*
Y92189D01*
X25671D01*
Y92090D01*
X25373D01*
Y91991D01*
X25273D01*
Y91891D01*
X24975D01*
Y91792D01*
X24876D01*
Y91693D01*
X24777D01*
Y91593D01*
X25075D01*
Y91494D01*
X25174D01*
Y91395D01*
X25273D01*
Y91295D01*
X25373D01*
Y91196D01*
X25472D01*
Y91097D01*
X25571D01*
Y90997D01*
X25671D01*
Y90898D01*
X25571D01*
Y90799D01*
X25671D01*
Y90699D01*
X25770D01*
Y90600D01*
X25869D01*
Y90501D01*
X25770D01*
Y90600D01*
X25671D01*
Y90501D01*
X25770D01*
Y90401D01*
X25671D01*
Y90302D01*
X25770D01*
Y90203D01*
X25671D01*
Y90103D01*
X25571D01*
Y90004D01*
X25671D01*
Y89905D01*
X25571D01*
Y89805D01*
X25671D01*
Y89706D01*
X25571D01*
Y89607D01*
X25472D01*
Y89507D01*
X25373D01*
Y89408D01*
X25472D01*
Y89309D01*
X25373D01*
Y89209D01*
X25273D01*
Y89110D01*
X25174D01*
Y89011D01*
X25273D01*
Y88911D01*
X25174D01*
Y88812D01*
X25075D01*
Y88713D01*
X24975D01*
Y88613D01*
X24876D01*
Y88514D01*
X24777D01*
Y88415D01*
X24677D01*
Y88315D01*
X24379D01*
Y88216D01*
X24280D01*
Y88117D01*
X24181D01*
Y88017D01*
X24081D01*
Y88117D01*
X23982D01*
Y88017D01*
X24081D01*
Y87918D01*
X23982D01*
Y88017D01*
X23883D01*
Y87918D01*
X23783D01*
Y87819D01*
X23684D01*
Y87918D01*
X23585D01*
Y87819D01*
X23684D01*
Y87719D01*
X23585D01*
Y87819D01*
X23485D01*
Y87719D01*
X23187D01*
Y87620D01*
X23088D01*
Y87719D01*
X22989D01*
Y87620D01*
X22889D01*
Y87719D01*
X22790D01*
Y87620D01*
X22889D01*
Y87521D01*
X22790D01*
Y87620D01*
X22691D01*
Y87521D01*
X22591D01*
Y87620D01*
X22492D01*
Y87521D01*
X22393D01*
Y87620D01*
X22293D01*
Y87521D01*
X22194D01*
Y87620D01*
X22095D01*
Y87521D01*
X21995D01*
Y87620D01*
X21896D01*
Y87521D01*
X21598D01*
Y87620D01*
X21499D01*
Y87521D01*
X21201D01*
Y87620D01*
X21101D01*
Y87521D01*
X20804D01*
Y87620D01*
X20704D01*
Y87521D01*
X20605D01*
Y87620D01*
X20505D01*
Y87521D01*
X20406D01*
Y87620D01*
X20307D01*
Y87521D01*
X20009D01*
Y87620D01*
X19909D01*
Y87521D01*
X19612D01*
Y87620D01*
X19512D01*
Y87521D01*
X19214D01*
Y87620D01*
X19115D01*
Y87719D01*
X19015D01*
Y87819D01*
X19115D01*
Y87918D01*
X19214D01*
Y88017D01*
X19115D01*
Y88117D01*
X19214D01*
Y88216D01*
X19313D01*
Y88315D01*
X19214D01*
Y88415D01*
X19313D01*
Y88514D01*
X19214D01*
Y88613D01*
X19313D01*
Y88713D01*
Y88812D01*
Y88911D01*
X19413D01*
Y89011D01*
X19512D01*
Y89110D01*
X19413D01*
Y89209D01*
X19512D01*
Y89309D01*
X19413D01*
Y89408D01*
X19512D01*
Y89507D01*
Y89607D01*
Y89706D01*
X19612D01*
Y89805D01*
Y89905D01*
Y90004D01*
X19711D01*
Y90103D01*
X19612D01*
Y90203D01*
X19711D01*
Y90302D01*
Y90401D01*
Y90501D01*
X19810D01*
Y90600D01*
Y90699D01*
Y90799D01*
X19909D01*
Y90898D01*
X19810D01*
Y90997D01*
X19909D01*
Y91097D01*
Y91196D01*
Y91295D01*
X20009D01*
Y91395D01*
Y91494D01*
Y91593D01*
X20108D01*
Y91693D01*
X20009D01*
Y91792D01*
X20108D01*
Y91891D01*
Y91991D01*
Y92090D01*
X20208D01*
Y92189D01*
X20307D01*
Y92289D01*
X20208D01*
Y92388D01*
X20307D01*
Y92487D01*
X20208D01*
Y92587D01*
X20307D01*
Y92686D01*
Y92785D01*
Y92885D01*
X20208D01*
Y92984D01*
X20307D01*
Y92885D01*
X20406D01*
Y92984D01*
Y93083D01*
Y93183D01*
X20505D01*
Y93282D01*
X20406D01*
Y93381D01*
X20505D01*
Y93480D01*
X20406D01*
Y93580D01*
X20505D01*
Y93679D01*
X20605D01*
Y93779D01*
X20505D01*
Y93878D01*
X20605D01*
Y93977D01*
X20704D01*
Y94077D01*
X20605D01*
Y94176D01*
X20704D01*
Y94275D01*
X20605D01*
Y94375D01*
X20704D01*
Y94474D01*
X20605D01*
Y94573D01*
X20704D01*
Y94673D01*
X20804D01*
Y94772D01*
X20903D01*
Y94871D01*
X20804D01*
Y94971D01*
X20903D01*
Y95070D01*
X20804D01*
Y95169D01*
X20903D01*
Y95268D01*
Y95368D01*
Y95467D01*
X21002D01*
Y95368D01*
X21101D01*
Y95467D01*
X21002D01*
Y95566D01*
X21101D01*
Y95467D01*
X21201D01*
Y95368D01*
X21300D01*
Y95467D01*
X21201D01*
Y95566D01*
X21300D01*
Y95467D01*
X21399D01*
Y95368D01*
X21499D01*
Y95467D01*
X21399D01*
Y95566D01*
X21499D01*
Y95467D01*
X21598D01*
Y95566D01*
X21697D01*
Y95467D01*
X21797D01*
Y95368D01*
X21896D01*
Y95467D01*
X21797D01*
Y95566D01*
X21896D01*
Y95467D01*
X21995D01*
Y95368D01*
X22095D01*
Y95467D01*
X21995D01*
Y95566D01*
X22095D01*
Y95467D01*
X22194D01*
Y95368D01*
X22293D01*
Y95467D01*
X22194D01*
Y95566D01*
X22293D01*
Y95467D01*
X22393D01*
Y95566D01*
X22492D01*
Y95467D01*
X22591D01*
Y95368D01*
X22691D01*
Y95467D01*
X22591D01*
Y95566D01*
X22691D01*
Y95467D01*
X22790D01*
Y95368D01*
X22889D01*
Y95467D01*
X22790D01*
Y95566D01*
X22889D01*
Y95467D01*
X22989D01*
Y95368D01*
X23088D01*
Y95467D01*
X22989D01*
Y95566D01*
X23088D01*
Y95467D01*
X23187D01*
Y95566D01*
X23287D01*
Y95467D01*
X23386D01*
Y95368D01*
X23485D01*
Y95467D01*
X23386D01*
Y95566D01*
X23485D01*
Y95467D01*
X23585D01*
Y95368D01*
X23684D01*
Y95467D01*
X23585D01*
Y95566D01*
X23684D01*
Y95467D01*
X23783D01*
Y95368D01*
X23883D01*
Y95467D01*
X23783D01*
Y95566D01*
X23883D01*
Y95467D01*
X23982D01*
Y95566D01*
X24081D01*
Y95467D01*
X24181D01*
Y95368D01*
X24280D01*
Y95467D01*
X24181D01*
Y95566D01*
X24280D01*
Y95467D01*
X24379D01*
Y95368D01*
X24479D01*
Y95467D01*
X24379D01*
Y95566D01*
X24479D01*
Y95467D01*
D02*
G37*
G36*
X45636Y95368D02*
X45735D01*
Y95268D01*
X45636D01*
Y95169D01*
X45735D01*
Y95070D01*
X45636D01*
Y94971D01*
X45536D01*
Y94871D01*
X45437D01*
Y94772D01*
X45536D01*
Y94673D01*
X45437D01*
Y94573D01*
X45338D01*
Y94474D01*
X45238D01*
Y94375D01*
Y94275D01*
Y94176D01*
X45139D01*
Y94077D01*
X45040D01*
Y93977D01*
X45139D01*
Y93878D01*
X44841D01*
Y93779D01*
X44940D01*
Y93679D01*
X44841D01*
Y93580D01*
X44742D01*
Y93480D01*
Y93381D01*
Y93282D01*
X44642D01*
Y93183D01*
X44543D01*
Y93083D01*
X44444D01*
Y92984D01*
X44543D01*
Y92885D01*
X44444D01*
Y92785D01*
X44344D01*
Y92686D01*
X44245D01*
Y92587D01*
X44344D01*
Y92487D01*
X44245D01*
Y92388D01*
X44146D01*
Y92289D01*
X44046D01*
Y92189D01*
X44146D01*
Y92090D01*
X43947D01*
Y91991D01*
Y91891D01*
X43848D01*
Y91792D01*
Y91693D01*
X43749D01*
Y91593D01*
Y91494D01*
X43649D01*
Y91395D01*
X43550D01*
Y91295D01*
X43450D01*
Y91196D01*
X43550D01*
Y91097D01*
X43450D01*
Y90997D01*
X43351D01*
Y90898D01*
X43252D01*
Y90799D01*
Y90699D01*
X43152D01*
Y90600D01*
Y90501D01*
X43053D01*
Y90401D01*
X42954D01*
Y90302D01*
X42854D01*
Y90203D01*
X42954D01*
Y90103D01*
X42854D01*
Y90004D01*
X42755D01*
Y89905D01*
X42656D01*
Y89805D01*
Y89706D01*
X42557D01*
Y89607D01*
Y89507D01*
X42457D01*
Y89408D01*
X42358D01*
Y89309D01*
X42259D01*
Y89209D01*
X42358D01*
Y89110D01*
X42159D01*
Y89011D01*
Y88911D01*
X42060D01*
Y88812D01*
X41960D01*
Y88713D01*
X41861D01*
Y88613D01*
X41960D01*
Y88514D01*
X41861D01*
Y88415D01*
X41762D01*
Y88315D01*
X41662D01*
Y88216D01*
X41762D01*
Y88117D01*
X41662D01*
Y88216D01*
X41563D01*
Y88117D01*
X41464D01*
Y88017D01*
X41563D01*
Y87918D01*
X41464D01*
Y87819D01*
X41365D01*
Y87918D01*
X41265D01*
Y87819D01*
X41365D01*
Y87719D01*
X41265D01*
Y87620D01*
X41166D01*
Y87521D01*
X41067D01*
Y87422D01*
X41166D01*
Y87322D01*
X41067D01*
Y87223D01*
X40967D01*
Y87124D01*
X40868D01*
Y87024D01*
Y86925D01*
X40669D01*
Y86826D01*
X40769D01*
Y86726D01*
X40669D01*
Y86627D01*
X40570D01*
Y86528D01*
X40471D01*
Y86428D01*
X40371D01*
Y86329D01*
X40272D01*
Y86229D01*
X40371D01*
Y86130D01*
X40272D01*
Y86031D01*
X40173D01*
Y85931D01*
X40073D01*
Y85832D01*
X40173D01*
Y85733D01*
X40073D01*
Y85832D01*
X39974D01*
Y85733D01*
X39875D01*
Y85634D01*
X39974D01*
Y85534D01*
X39875D01*
Y85435D01*
X39974D01*
Y85336D01*
X39875D01*
Y85236D01*
X39974D01*
Y85137D01*
X39875D01*
Y85038D01*
X39974D01*
Y84938D01*
X39875D01*
Y84839D01*
X39974D01*
Y84740D01*
X39875D01*
Y84640D01*
X39974D01*
Y84541D01*
X39875D01*
Y84442D01*
X39974D01*
Y84342D01*
X39875D01*
Y84442D01*
X39775D01*
Y84342D01*
X39875D01*
Y84243D01*
X39775D01*
Y84144D01*
X39676D01*
Y84044D01*
X39775D01*
Y83945D01*
X39676D01*
Y83846D01*
X39577D01*
Y83746D01*
X39477D01*
Y83647D01*
X39577D01*
Y83548D01*
X39477D01*
Y83448D01*
X39378D01*
Y83548D01*
X39279D01*
Y83647D01*
X39179D01*
Y83746D01*
X39080D01*
Y83846D01*
X39179D01*
Y83945D01*
X39080D01*
Y84044D01*
X38981D01*
Y84144D01*
X38683D01*
Y84044D01*
X38782D01*
Y83945D01*
X38484D01*
Y83846D01*
X38385D01*
Y83746D01*
X38285D01*
Y83647D01*
X38385D01*
Y83548D01*
X38285D01*
Y83448D01*
X38186D01*
Y83349D01*
X38087D01*
Y83250D01*
X38186D01*
Y83150D01*
X38087D01*
Y83051D01*
X38186D01*
Y82952D01*
X38285D01*
Y82852D01*
X38583D01*
Y82753D01*
X38683D01*
Y82654D01*
X38981D01*
Y82554D01*
X39080D01*
Y82455D01*
X39378D01*
Y82356D01*
X39477D01*
Y82256D01*
X39775D01*
Y82157D01*
X39875D01*
Y82058D01*
X40173D01*
Y81958D01*
X40272D01*
Y81859D01*
X40669D01*
Y81760D01*
Y81660D01*
X40967D01*
Y81561D01*
X41067D01*
Y81462D01*
X41166D01*
Y81362D01*
X41265D01*
Y81462D01*
X41365D01*
Y81362D01*
X41464D01*
Y81263D01*
X41563D01*
Y81164D01*
X41662D01*
Y81064D01*
X41960D01*
Y80965D01*
X42060D01*
Y80866D01*
X42358D01*
Y80766D01*
X42457D01*
Y80667D01*
X42557D01*
Y80568D01*
X42656D01*
Y80468D01*
X42954D01*
Y80369D01*
X43053D01*
Y80270D01*
X43152D01*
Y80171D01*
X43252D01*
Y80071D01*
X43351D01*
Y80171D01*
X43252D01*
Y80270D01*
X43351D01*
Y80171D01*
X43450D01*
Y80071D01*
X43550D01*
Y79972D01*
X43649D01*
Y79873D01*
X43947D01*
Y79773D01*
X44046D01*
Y79674D01*
X44146D01*
Y79575D01*
X44245D01*
Y79475D01*
X44344D01*
Y79376D01*
X44444D01*
Y79277D01*
X44742D01*
Y79177D01*
X44841D01*
Y79078D01*
X44940D01*
Y78979D01*
X45040D01*
Y78879D01*
X45139D01*
Y78780D01*
X45238D01*
Y78680D01*
X45536D01*
Y78581D01*
X45636D01*
Y78482D01*
X45735D01*
Y78382D01*
X45834D01*
Y78283D01*
X45934D01*
Y78184D01*
X46033D01*
Y78085D01*
X46132D01*
Y77985D01*
X46232D01*
Y77886D01*
X46530D01*
Y77787D01*
X46629D01*
Y77687D01*
X46728D01*
Y77588D01*
X46828D01*
Y77489D01*
X46927D01*
Y77389D01*
X47026D01*
Y77290D01*
X47126D01*
Y77191D01*
X47225D01*
Y77091D01*
X47324D01*
Y76992D01*
X47424D01*
Y76893D01*
X47523D01*
Y76793D01*
X47622D01*
Y76694D01*
X47722D01*
Y76595D01*
X47821D01*
Y76495D01*
X47920D01*
Y76396D01*
X48020D01*
Y76297D01*
X48119D01*
Y76197D01*
X48218D01*
Y76098D01*
X48318D01*
Y75999D01*
X48417D01*
Y75899D01*
X48516D01*
Y75800D01*
X48616D01*
Y75701D01*
X48715D01*
Y75601D01*
X48814D01*
Y75502D01*
X48913D01*
Y75403D01*
X49013D01*
Y75303D01*
X49112D01*
Y75204D01*
X49211D01*
Y75105D01*
X49311D01*
Y75005D01*
X49410D01*
Y74906D01*
X49510D01*
Y74807D01*
X49410D01*
Y74906D01*
X49311D01*
Y75005D01*
X49211D01*
Y75105D01*
X49112D01*
Y75204D01*
X49013D01*
Y75303D01*
X48913D01*
Y75403D01*
X48616D01*
Y75502D01*
X48715D01*
Y75601D01*
X48417D01*
Y75701D01*
Y75800D01*
X48218D01*
Y75899D01*
Y75999D01*
X48020D01*
Y76098D01*
X47920D01*
Y76197D01*
X47821D01*
Y76297D01*
X47722D01*
Y76396D01*
X47622D01*
Y76495D01*
X47523D01*
Y76595D01*
X47424D01*
Y76694D01*
X47324D01*
Y76793D01*
X47225D01*
Y76893D01*
X47126D01*
Y76992D01*
X46828D01*
Y77091D01*
X46927D01*
Y77191D01*
X46629D01*
Y77290D01*
X46530D01*
Y77389D01*
X46430D01*
Y77489D01*
X46331D01*
Y77588D01*
X46232D01*
Y77687D01*
X46132D01*
Y77787D01*
X46033D01*
Y77886D01*
X45934D01*
Y77985D01*
X45636D01*
Y78085D01*
X45536D01*
Y78184D01*
X45437D01*
Y78283D01*
X45338D01*
Y78382D01*
X45238D01*
Y78482D01*
X45139D01*
Y78581D01*
X45040D01*
Y78482D01*
X45139D01*
Y78382D01*
X45040D01*
Y78482D01*
X44940D01*
Y78581D01*
X44841D01*
Y78680D01*
X44742D01*
Y78780D01*
X44642D01*
Y78879D01*
X44543D01*
Y78979D01*
X44245D01*
Y79078D01*
X44146D01*
Y79177D01*
X44046D01*
Y79277D01*
X43947D01*
Y79376D01*
X43649D01*
Y79475D01*
X43550D01*
Y79575D01*
X43450D01*
Y79674D01*
X43351D01*
Y79773D01*
X43053D01*
Y79873D01*
X42954D01*
Y79972D01*
X42854D01*
Y80071D01*
X42755D01*
Y80171D01*
X42656D01*
Y80071D01*
X42755D01*
Y79972D01*
X42656D01*
Y80071D01*
X42557D01*
Y80171D01*
X42457D01*
Y80270D01*
X42358D01*
Y80369D01*
X42060D01*
Y80468D01*
X41960D01*
Y80568D01*
X41861D01*
Y80667D01*
X41762D01*
Y80766D01*
X41464D01*
Y80866D01*
X41365D01*
Y80965D01*
X41067D01*
Y80866D01*
X41166D01*
Y80766D01*
X41265D01*
Y80667D01*
X41365D01*
Y80568D01*
X41265D01*
Y80667D01*
X41166D01*
Y80766D01*
X41067D01*
Y80866D01*
X40967D01*
Y80965D01*
X40868D01*
Y81064D01*
X40967D01*
Y81164D01*
X40669D01*
Y81263D01*
X40570D01*
Y81362D01*
X40471D01*
Y81462D01*
X40371D01*
Y81362D01*
X40272D01*
Y81462D01*
X40173D01*
Y81561D01*
X40073D01*
Y81660D01*
X39974D01*
Y81760D01*
X39875D01*
Y81660D01*
X39974D01*
Y81561D01*
X39875D01*
Y81660D01*
X39775D01*
Y81760D01*
X39676D01*
Y81859D01*
X39577D01*
Y81760D01*
X39477D01*
Y81859D01*
X39378D01*
Y81958D01*
X39080D01*
Y82058D01*
X38981D01*
Y82157D01*
X38683D01*
Y82256D01*
X38583D01*
Y82356D01*
X38285D01*
Y82455D01*
X38186D01*
Y82554D01*
X37689D01*
Y82455D01*
X37789D01*
Y82356D01*
X37689D01*
Y82256D01*
X37590D01*
Y82157D01*
X37491D01*
Y82058D01*
X37590D01*
Y81958D01*
X37491D01*
Y81859D01*
X37391D01*
Y81760D01*
X37292D01*
Y81660D01*
Y81561D01*
Y81462D01*
X37193D01*
Y81362D01*
X37093D01*
Y81263D01*
X37193D01*
Y81164D01*
X37093D01*
Y81064D01*
X36994D01*
Y81164D01*
X36895D01*
Y81263D01*
X36994D01*
Y81362D01*
Y81462D01*
X37093D01*
Y81561D01*
Y81660D01*
X37193D01*
Y81760D01*
X37093D01*
Y81859D01*
X37193D01*
Y81958D01*
X37292D01*
Y82058D01*
Y82157D01*
Y82256D01*
X37391D01*
Y82356D01*
Y82455D01*
Y82554D01*
X37491D01*
Y82654D01*
X37590D01*
Y82753D01*
X37491D01*
Y82852D01*
X37391D01*
Y82753D01*
X37292D01*
Y82852D01*
X37193D01*
Y82952D01*
X36895D01*
Y83051D01*
X36795D01*
Y83150D01*
X36696D01*
Y83051D01*
X36795D01*
Y82952D01*
X36696D01*
Y83051D01*
X36597D01*
Y83150D01*
X36497D01*
Y83051D01*
X36597D01*
Y82952D01*
X36299D01*
Y82852D01*
X36398D01*
Y82753D01*
X36299D01*
Y82852D01*
X36199D01*
Y82753D01*
X36100D01*
Y82654D01*
X36001D01*
Y82554D01*
X35703D01*
Y82455D01*
X35603D01*
Y82356D01*
X35504D01*
Y82256D01*
X35405D01*
Y82157D01*
X35107D01*
Y82058D01*
X35008D01*
Y81958D01*
X34908D01*
Y81859D01*
X34809D01*
Y81958D01*
X34710D01*
Y82058D01*
X34809D01*
Y82157D01*
X34908D01*
Y82256D01*
X35008D01*
Y82356D01*
X35107D01*
Y82455D01*
X35405D01*
Y82554D01*
X35306D01*
Y82654D01*
X35603D01*
Y82753D01*
X35703D01*
Y82852D01*
X35802D01*
Y82952D01*
X35901D01*
Y82852D01*
X36001D01*
Y82952D01*
X35901D01*
Y83051D01*
X36199D01*
Y83150D01*
X36299D01*
Y83250D01*
X36199D01*
Y83349D01*
X35901D01*
Y83448D01*
X35802D01*
Y83548D01*
X35703D01*
Y83448D01*
X35802D01*
Y83349D01*
X35703D01*
Y83448D01*
X35603D01*
Y83548D01*
X35504D01*
Y83647D01*
X35405D01*
Y83548D01*
X35306D01*
Y83647D01*
X35206D01*
Y83746D01*
X35107D01*
Y83647D01*
X35008D01*
Y83746D01*
X34908D01*
Y83846D01*
X34809D01*
Y83746D01*
X34710D01*
Y83846D01*
X34610D01*
Y83945D01*
X34312D01*
Y84044D01*
X34014D01*
Y84144D01*
X33716D01*
Y84243D01*
X33617D01*
Y84144D01*
X33518D01*
Y84243D01*
X33418D01*
Y84342D01*
X33120D01*
Y84442D01*
X33021D01*
Y84342D01*
X32922D01*
Y84442D01*
X32822D01*
Y84541D01*
X32723D01*
Y84442D01*
X32822D01*
Y84342D01*
X32723D01*
Y84442D01*
X32624D01*
Y84541D01*
X32127D01*
Y84640D01*
X32028D01*
Y84740D01*
X31928D01*
Y84640D01*
X32028D01*
Y84541D01*
X31928D01*
Y84640D01*
X31829D01*
Y84740D01*
X31730D01*
Y84640D01*
X31829D01*
Y84541D01*
X31730D01*
Y84640D01*
X31630D01*
Y84740D01*
X31531D01*
Y84839D01*
X31432D01*
Y84740D01*
X31531D01*
Y84640D01*
X31630D01*
Y84541D01*
X31531D01*
Y84640D01*
X31432D01*
Y84740D01*
X31332D01*
Y84839D01*
X31233D01*
Y84938D01*
X31134D01*
Y84839D01*
X31233D01*
Y84740D01*
X31332D01*
Y84640D01*
X31432D01*
Y84541D01*
X31332D01*
Y84640D01*
X31233D01*
Y84740D01*
X31134D01*
Y84839D01*
X31034D01*
Y84938D01*
X30736D01*
Y85038D01*
X30637D01*
Y85137D01*
X30538D01*
Y85038D01*
X30637D01*
Y84938D01*
X30538D01*
Y85038D01*
X30438D01*
Y85137D01*
X30339D01*
Y85038D01*
X30240D01*
Y85137D01*
X30140D01*
Y85038D01*
X30041D01*
Y85137D01*
X29942D01*
Y85038D01*
X29842D01*
Y85137D01*
X29743D01*
Y85038D01*
X29842D01*
Y84938D01*
X29942D01*
Y84839D01*
X30637D01*
Y84740D01*
X30736D01*
Y84640D01*
X30637D01*
Y84740D01*
X30538D01*
Y84640D01*
X30637D01*
Y84541D01*
X30538D01*
Y84640D01*
X30438D01*
Y84740D01*
X30339D01*
Y84640D01*
X30240D01*
Y84740D01*
X30140D01*
Y84640D01*
X30041D01*
Y84740D01*
X29147D01*
Y84839D01*
X29048D01*
Y84740D01*
X28948D01*
Y84839D01*
X28849D01*
Y84740D01*
X28750D01*
Y84839D01*
X28651D01*
Y84740D01*
X28551D01*
Y84839D01*
X28452D01*
Y84740D01*
X28352D01*
Y84839D01*
X28253D01*
Y84740D01*
X28154D01*
Y84839D01*
X28054D01*
Y84938D01*
X27955D01*
Y84839D01*
X28054D01*
Y84740D01*
X27955D01*
Y84839D01*
X27856D01*
Y84938D01*
X27757D01*
Y84839D01*
X27856D01*
Y84740D01*
X27757D01*
Y84839D01*
X27657D01*
Y84938D01*
X27558D01*
Y84839D01*
X27657D01*
Y84740D01*
X27558D01*
Y84839D01*
X27459D01*
Y84938D01*
X27359D01*
Y84839D01*
X27260D01*
Y84938D01*
X27161D01*
Y84839D01*
X27061D01*
Y84938D01*
X26962D01*
Y84839D01*
X26862D01*
Y84938D01*
X26763D01*
Y84839D01*
X26664D01*
Y84938D01*
X26366D01*
Y84839D01*
X26267D01*
Y84938D01*
X25770D01*
Y85038D01*
X26068D01*
Y85137D01*
X26167D01*
Y85038D01*
X26465D01*
Y85137D01*
X26564D01*
Y85038D01*
X26664D01*
Y85137D01*
X26763D01*
Y85038D01*
X26862D01*
Y85137D01*
X26763D01*
Y85236D01*
X26862D01*
Y85137D01*
X26962D01*
Y85038D01*
X27061D01*
Y85137D01*
X27161D01*
Y85038D01*
X27260D01*
Y85137D01*
X27161D01*
Y85236D01*
X27260D01*
Y85137D01*
X27359D01*
Y85038D01*
X27459D01*
Y85137D01*
X27558D01*
Y85236D01*
X27657D01*
Y85137D01*
X27757D01*
Y85038D01*
X27856D01*
Y85137D01*
X27757D01*
Y85236D01*
X27856D01*
Y85137D01*
X27955D01*
Y85236D01*
X28054D01*
Y85137D01*
X28154D01*
Y85236D01*
X28253D01*
Y85137D01*
X28352D01*
Y85236D01*
X28452D01*
Y85137D01*
X28551D01*
Y85236D01*
X28651D01*
Y85137D01*
X28750D01*
Y85236D01*
X28849D01*
Y85137D01*
X28948D01*
Y85038D01*
X29048D01*
Y84938D01*
X29147D01*
Y85038D01*
X29048D01*
Y85137D01*
X28948D01*
Y85236D01*
X29048D01*
Y85137D01*
X29147D01*
Y85038D01*
X29246D01*
Y84938D01*
X29346D01*
Y84839D01*
X29445D01*
Y84938D01*
X29346D01*
Y85038D01*
X29246D01*
Y85137D01*
X29147D01*
Y85236D01*
X29246D01*
Y85336D01*
X28750D01*
Y85435D01*
X28651D01*
Y85534D01*
X28551D01*
Y85435D01*
X28651D01*
Y85336D01*
X28551D01*
Y85435D01*
X28253D01*
Y85534D01*
X27558D01*
Y85634D01*
X27459D01*
Y85534D01*
X27359D01*
Y85634D01*
X27061D01*
Y85733D01*
X26962D01*
Y85634D01*
X26862D01*
Y85733D01*
X26763D01*
Y85634D01*
X26664D01*
Y85733D01*
X25969D01*
Y85832D01*
X25869D01*
Y85733D01*
X25770D01*
Y85832D01*
X25671D01*
Y85733D01*
X25571D01*
Y85832D01*
X25472D01*
Y85733D01*
X25373D01*
Y85832D01*
X25273D01*
Y85931D01*
X25174D01*
Y85832D01*
X25075D01*
Y85931D01*
X24975D01*
Y85832D01*
X25075D01*
Y85733D01*
X24975D01*
Y85832D01*
X24876D01*
Y85931D01*
X24777D01*
Y85832D01*
X24677D01*
Y85931D01*
X24578D01*
Y85832D01*
X24479D01*
Y85931D01*
X23585D01*
Y86031D01*
X25869D01*
Y85931D01*
X25969D01*
Y86031D01*
X26068D01*
Y85931D01*
X26167D01*
Y85832D01*
X26267D01*
Y85931D01*
X26167D01*
Y86031D01*
X26267D01*
Y85931D01*
X26366D01*
Y86031D01*
X26465D01*
Y85931D01*
X26564D01*
Y85832D01*
X26664D01*
Y85931D01*
X26564D01*
Y86031D01*
X26664D01*
Y85931D01*
X26763D01*
Y85832D01*
X26862D01*
Y85931D01*
X26763D01*
Y86031D01*
X26862D01*
Y85931D01*
X26962D01*
Y85832D01*
X27061D01*
Y85931D01*
X27161D01*
Y85832D01*
X27260D01*
Y85931D01*
X27359D01*
Y85832D01*
X28054D01*
Y85733D01*
X28154D01*
Y85832D01*
X28253D01*
Y85733D01*
X28352D01*
Y85832D01*
X28452D01*
Y85733D01*
X28551D01*
Y85832D01*
X28651D01*
Y85733D01*
X28750D01*
Y85634D01*
X28849D01*
Y85733D01*
X28948D01*
Y85634D01*
X29445D01*
Y85534D01*
X29544D01*
Y85634D01*
X29644D01*
Y85534D01*
X29942D01*
Y85435D01*
X30041D01*
Y85534D01*
X30140D01*
Y85435D01*
X30637D01*
Y85336D01*
X30935D01*
Y85236D01*
X31034D01*
Y85336D01*
X30935D01*
Y85435D01*
X31034D01*
Y85336D01*
X31134D01*
Y85236D01*
X31233D01*
Y85336D01*
X31332D01*
Y85236D01*
X31432D01*
Y85336D01*
X31332D01*
Y85435D01*
X31432D01*
Y85336D01*
X31531D01*
Y85236D01*
X31630D01*
Y85137D01*
X31730D01*
Y85038D01*
X31829D01*
Y85137D01*
X31730D01*
Y85236D01*
X31630D01*
Y85336D01*
X31730D01*
Y85236D01*
X31829D01*
Y85137D01*
X31928D01*
Y85038D01*
X32425D01*
Y84938D01*
X32524D01*
Y84839D01*
X32624D01*
Y84938D01*
X32524D01*
Y85038D01*
X32624D01*
Y84938D01*
X32723D01*
Y84839D01*
X33021D01*
Y84740D01*
X33120D01*
Y84839D01*
X33220D01*
Y84740D01*
X33319D01*
Y84640D01*
X33816D01*
Y84541D01*
X33915D01*
Y84442D01*
X34014D01*
Y84541D01*
X34113D01*
Y84442D01*
X34411D01*
Y84342D01*
X34511D01*
Y84243D01*
X34610D01*
Y84342D01*
X34710D01*
Y84243D01*
X35008D01*
Y84144D01*
X35107D01*
Y84044D01*
X35206D01*
Y84144D01*
X35306D01*
Y84044D01*
X35603D01*
Y83945D01*
X35703D01*
Y83846D01*
X36199D01*
Y83746D01*
X36299D01*
Y83647D01*
X36597D01*
Y83548D01*
X36696D01*
Y83647D01*
X36994D01*
Y83746D01*
X36895D01*
Y83846D01*
X36994D01*
Y83746D01*
X37093D01*
Y83846D01*
X37193D01*
Y83945D01*
X37292D01*
Y83846D01*
X37391D01*
Y83945D01*
X37292D01*
Y84044D01*
X37391D01*
Y84144D01*
X37491D01*
Y84044D01*
X37590D01*
Y84144D01*
X37491D01*
Y84243D01*
X37789D01*
Y84342D01*
X37888D01*
Y84442D01*
X37789D01*
Y84541D01*
X37689D01*
Y84640D01*
X37789D01*
Y84541D01*
X37888D01*
Y84640D01*
X37987D01*
Y84740D01*
X37888D01*
Y84839D01*
X37789D01*
Y84938D01*
X37689D01*
Y85038D01*
X37590D01*
Y84938D01*
X37491D01*
Y85038D01*
X37391D01*
Y85137D01*
X37292D01*
Y85038D01*
X37391D01*
Y84938D01*
X37292D01*
Y85038D01*
X37193D01*
Y85137D01*
X37093D01*
Y85236D01*
X37193D01*
Y85336D01*
X37292D01*
Y85435D01*
X37391D01*
Y85534D01*
X37491D01*
Y85634D01*
X37590D01*
Y85733D01*
X37689D01*
Y85832D01*
X37789D01*
Y85931D01*
X37888D01*
Y86031D01*
X37987D01*
Y86130D01*
X38087D01*
Y86031D01*
X38186D01*
Y86130D01*
X38087D01*
Y86229D01*
X38186D01*
Y86130D01*
X38285D01*
Y86229D01*
X38583D01*
Y86329D01*
X38683D01*
Y86229D01*
X38782D01*
Y86329D01*
X38683D01*
Y86428D01*
X38782D01*
Y86329D01*
X38881D01*
Y86229D01*
X38981D01*
Y86329D01*
X38881D01*
Y86428D01*
X38981D01*
Y86528D01*
X39080D01*
Y86627D01*
X39179D01*
Y86726D01*
X39080D01*
Y86826D01*
X39179D01*
Y86925D01*
X39279D01*
Y87024D01*
X39378D01*
Y87124D01*
X39477D01*
Y87223D01*
X39577D01*
Y87322D01*
X39477D01*
Y87422D01*
X39577D01*
Y87521D01*
X39676D01*
Y87620D01*
X39775D01*
Y87719D01*
X39676D01*
Y87819D01*
X39974D01*
Y87918D01*
X39875D01*
Y88017D01*
X39974D01*
Y88117D01*
X40073D01*
Y88216D01*
X40173D01*
Y88315D01*
X40272D01*
Y88415D01*
X40371D01*
Y88514D01*
X40272D01*
Y88613D01*
X40371D01*
Y88713D01*
X40471D01*
Y88613D01*
X40570D01*
Y88713D01*
X40471D01*
Y88812D01*
X40570D01*
Y88911D01*
X40669D01*
Y89011D01*
X40769D01*
Y89110D01*
X40669D01*
Y89209D01*
X40868D01*
Y89309D01*
Y89408D01*
X40967D01*
Y89507D01*
X41067D01*
Y89607D01*
X41166D01*
Y89706D01*
X41067D01*
Y89805D01*
X41365D01*
Y89905D01*
X41265D01*
Y90004D01*
X41365D01*
Y90103D01*
X41464D01*
Y90203D01*
X41563D01*
Y90302D01*
X41662D01*
Y90401D01*
X41762D01*
Y90501D01*
X41662D01*
Y90600D01*
X41861D01*
Y90699D01*
Y90799D01*
X41960D01*
Y90898D01*
X42060D01*
Y90997D01*
X42159D01*
Y91097D01*
X42259D01*
Y91196D01*
X42358D01*
Y91295D01*
X42259D01*
Y91395D01*
X42358D01*
Y91494D01*
X42457D01*
Y91395D01*
X42557D01*
Y91494D01*
X42457D01*
Y91593D01*
X42557D01*
Y91693D01*
X42656D01*
Y91792D01*
X42755D01*
Y91891D01*
X42656D01*
Y91991D01*
X42755D01*
Y91891D01*
X42854D01*
Y91991D01*
X42954D01*
Y92090D01*
X42854D01*
Y92189D01*
X43053D01*
Y92289D01*
Y92388D01*
X43152D01*
Y92487D01*
X43252D01*
Y92587D01*
X43351D01*
Y92686D01*
X43450D01*
Y92785D01*
X43550D01*
Y92885D01*
X43450D01*
Y92984D01*
X43749D01*
Y93083D01*
X43649D01*
Y93183D01*
X43749D01*
Y93282D01*
X43848D01*
Y93381D01*
X43947D01*
Y93480D01*
X44046D01*
Y93580D01*
X44146D01*
Y93679D01*
X44046D01*
Y93779D01*
X44344D01*
Y93878D01*
X44245D01*
Y93977D01*
X44444D01*
Y94077D01*
Y94176D01*
X44543D01*
Y94275D01*
X44642D01*
Y94375D01*
X44742D01*
Y94474D01*
X44841D01*
Y94573D01*
X44940D01*
Y94673D01*
X45040D01*
Y94772D01*
X45139D01*
Y94871D01*
X45238D01*
Y94971D01*
X45338D01*
Y95070D01*
Y95169D01*
X45536D01*
Y95268D01*
X45437D01*
Y95368D01*
X45536D01*
Y95467D01*
X45636D01*
Y95368D01*
D02*
G37*
G36*
X75335Y89507D02*
X75434D01*
Y89408D01*
X75732D01*
Y89309D01*
X75832D01*
Y89209D01*
X76130D01*
Y89110D01*
X76229D01*
Y89011D01*
X76328D01*
Y88911D01*
X76428D01*
Y88812D01*
X76527D01*
Y88713D01*
X76626D01*
Y88613D01*
X76726D01*
Y88514D01*
X76825D01*
Y88415D01*
X76924D01*
Y88315D01*
X76825D01*
Y88216D01*
X76924D01*
Y88117D01*
Y88017D01*
X77024D01*
Y87918D01*
Y87819D01*
X77123D01*
Y87719D01*
X77024D01*
Y87620D01*
X77123D01*
Y87521D01*
X77024D01*
Y87422D01*
X76924D01*
Y87521D01*
X76825D01*
Y87422D01*
X76726D01*
Y87322D01*
X76626D01*
Y87422D01*
X76527D01*
Y87322D01*
X76229D01*
Y87223D01*
X75931D01*
Y87124D01*
X75434D01*
Y87024D01*
X75136D01*
Y86925D01*
X74838D01*
Y87024D01*
Y87124D01*
Y87223D01*
X74739D01*
Y87322D01*
X74640D01*
Y87422D01*
X74739D01*
Y87521D01*
X74441D01*
Y87620D01*
X74342D01*
Y87719D01*
X74242D01*
Y87819D01*
X74143D01*
Y87719D01*
X74044D01*
Y87819D01*
X73944D01*
Y87918D01*
X73845D01*
Y87819D01*
X73944D01*
Y87719D01*
X73845D01*
Y87819D01*
X73746D01*
Y87719D01*
X73646D01*
Y87819D01*
X73547D01*
Y87719D01*
X73249D01*
Y87620D01*
X73348D01*
Y87521D01*
X73249D01*
Y87620D01*
X73150D01*
Y87521D01*
X73050D01*
Y87422D01*
X72951D01*
Y87322D01*
X72852D01*
Y87223D01*
X72752D01*
Y87124D01*
X72653D01*
Y87024D01*
X72554D01*
Y86925D01*
X72455D01*
Y86826D01*
X72554D01*
Y86726D01*
X72355D01*
Y86627D01*
Y86528D01*
X72256D01*
Y86428D01*
Y86329D01*
Y86229D01*
X72157D01*
Y86130D01*
X72057D01*
Y86031D01*
X72157D01*
Y85931D01*
X72057D01*
Y85832D01*
X71958D01*
Y85733D01*
X72057D01*
Y85634D01*
X71958D01*
Y85534D01*
X71859D01*
Y85435D01*
X71958D01*
Y85336D01*
X71859D01*
Y85236D01*
Y85137D01*
Y85038D01*
X71759D01*
Y84938D01*
X71660D01*
Y84839D01*
X71759D01*
Y84740D01*
X71660D01*
Y84640D01*
X71759D01*
Y84541D01*
X71660D01*
Y84442D01*
X71759D01*
Y84342D01*
X71660D01*
Y84243D01*
X71759D01*
Y84144D01*
X71660D01*
Y84044D01*
X71759D01*
Y83945D01*
X71660D01*
Y83846D01*
X71759D01*
Y83746D01*
X71660D01*
Y83647D01*
X71759D01*
Y83548D01*
X71859D01*
Y83448D01*
X71958D01*
Y83349D01*
X71859D01*
Y83448D01*
X71759D01*
Y83349D01*
X71859D01*
Y83250D01*
X71958D01*
Y83150D01*
X72057D01*
Y83051D01*
X72157D01*
Y82952D01*
X72256D01*
Y82852D01*
X72355D01*
Y82952D01*
X72256D01*
Y83051D01*
X72355D01*
Y82952D01*
X72455D01*
Y82852D01*
X73150D01*
Y82952D01*
X73050D01*
Y83051D01*
X73150D01*
Y82952D01*
X73249D01*
Y83051D01*
X73547D01*
Y83150D01*
X73646D01*
Y83250D01*
X73746D01*
Y83349D01*
X73845D01*
Y83448D01*
X74143D01*
Y83349D01*
X74242D01*
Y83250D01*
X74342D01*
Y83349D01*
X74242D01*
Y83448D01*
X74342D01*
Y83349D01*
X74441D01*
Y83250D01*
X74540D01*
Y83150D01*
X74640D01*
Y83051D01*
X74739D01*
Y83150D01*
X74838D01*
Y83051D01*
X75136D01*
Y82952D01*
X75236D01*
Y82852D01*
X75534D01*
Y82753D01*
X75633D01*
Y82654D01*
Y82554D01*
X75534D01*
Y82455D01*
X75434D01*
Y82356D01*
X75335D01*
Y82256D01*
Y82157D01*
X75037D01*
Y82058D01*
Y81958D01*
X74838D01*
Y81859D01*
X74739D01*
Y81760D01*
X74640D01*
Y81660D01*
X74540D01*
Y81760D01*
X74441D01*
Y81660D01*
X74540D01*
Y81561D01*
X74441D01*
Y81660D01*
X74342D01*
Y81561D01*
X74242D01*
Y81462D01*
X74143D01*
Y81362D01*
X73845D01*
Y81263D01*
X73746D01*
Y81362D01*
X73646D01*
Y81263D01*
X73746D01*
Y81164D01*
X73646D01*
Y81263D01*
X73547D01*
Y81164D01*
X73050D01*
Y81064D01*
X72951D01*
Y81164D01*
X72852D01*
Y81064D01*
X72752D01*
Y81164D01*
X72653D01*
Y81064D01*
X72752D01*
Y80965D01*
X72653D01*
Y81064D01*
X72554D01*
Y80965D01*
X72455D01*
Y81064D01*
X72355D01*
Y80965D01*
X72256D01*
Y81064D01*
X72157D01*
Y80965D01*
X72057D01*
Y81064D01*
X71958D01*
Y80965D01*
X71859D01*
Y81064D01*
X71561D01*
Y81164D01*
X71461D01*
Y81064D01*
X71561D01*
Y80965D01*
X71461D01*
Y81064D01*
X71362D01*
Y81164D01*
X71064D01*
Y81263D01*
X70965D01*
Y81362D01*
X70865D01*
Y81263D01*
X70965D01*
Y81164D01*
X70865D01*
Y81263D01*
X70766D01*
Y81362D01*
X70667D01*
Y81462D01*
X70567D01*
Y81561D01*
X70269D01*
Y81660D01*
X70170D01*
Y81760D01*
X70071D01*
Y81859D01*
X69971D01*
Y81958D01*
X69872D01*
Y82058D01*
Y82157D01*
Y82256D01*
X69773D01*
Y82356D01*
X69673D01*
Y82455D01*
X69574D01*
Y82554D01*
X69475D01*
Y82654D01*
X69574D01*
Y82753D01*
X69475D01*
Y82852D01*
X69574D01*
Y82952D01*
X69475D01*
Y83051D01*
Y83150D01*
Y83250D01*
X69375D01*
Y83349D01*
X69475D01*
Y83448D01*
X69375D01*
Y83548D01*
Y83647D01*
Y83746D01*
Y83846D01*
Y83945D01*
Y84044D01*
Y84144D01*
X69475D01*
Y84243D01*
X69375D01*
Y84342D01*
X69475D01*
Y84442D01*
Y84541D01*
Y84640D01*
Y84740D01*
Y84839D01*
X69574D01*
Y84938D01*
X69475D01*
Y85038D01*
X69574D01*
Y85137D01*
Y85236D01*
Y85336D01*
X69475D01*
Y85435D01*
X69574D01*
Y85336D01*
X69673D01*
Y85435D01*
Y85534D01*
Y85634D01*
X69773D01*
Y85733D01*
X69673D01*
Y85832D01*
X69773D01*
Y85931D01*
X69673D01*
Y86031D01*
X69773D01*
Y86130D01*
X69872D01*
Y86229D01*
X69971D01*
Y86329D01*
X69872D01*
Y86428D01*
X69971D01*
Y86528D01*
X70071D01*
Y86627D01*
X70170D01*
Y86726D01*
X70071D01*
Y86826D01*
X70170D01*
Y86925D01*
X70269D01*
Y87024D01*
X70369D01*
Y87124D01*
X70269D01*
Y87223D01*
X70369D01*
Y87322D01*
X70468D01*
Y87422D01*
X70567D01*
Y87521D01*
X70468D01*
Y87620D01*
X70667D01*
Y87719D01*
Y87819D01*
X70766D01*
Y87918D01*
X70865D01*
Y88017D01*
X70965D01*
Y88117D01*
X71064D01*
Y88216D01*
X71163D01*
Y88315D01*
X71263D01*
Y88415D01*
X71362D01*
Y88514D01*
X71461D01*
Y88613D01*
X71660D01*
Y88713D01*
Y88812D01*
X71958D01*
Y88911D01*
X72057D01*
Y89011D01*
X72157D01*
Y89110D01*
X72256D01*
Y89011D01*
X72355D01*
Y89110D01*
X72455D01*
Y89209D01*
X72554D01*
Y89309D01*
X72653D01*
Y89209D01*
X72752D01*
Y89309D01*
X72653D01*
Y89408D01*
X72752D01*
Y89309D01*
X72852D01*
Y89408D01*
X73348D01*
Y89507D01*
X73448D01*
Y89408D01*
X73547D01*
Y89507D01*
X73448D01*
Y89607D01*
X73547D01*
Y89507D01*
X73646D01*
Y89607D01*
X73746D01*
Y89507D01*
X73845D01*
Y89607D01*
X73944D01*
Y89507D01*
X74044D01*
Y89607D01*
X74342D01*
Y89507D01*
X74441D01*
Y89607D01*
X74739D01*
Y89507D01*
X74838D01*
Y89607D01*
X74938D01*
Y89507D01*
X75037D01*
Y89408D01*
X75136D01*
Y89507D01*
X75037D01*
Y89607D01*
X75136D01*
Y89507D01*
X75236D01*
Y89408D01*
X75335D01*
Y89507D01*
X75236D01*
Y89607D01*
X75335D01*
Y89507D01*
D02*
G37*
G36*
X63416D02*
X63515D01*
Y89408D01*
X63813D01*
Y89309D01*
X63912D01*
Y89408D01*
X64012D01*
Y89309D01*
X64111D01*
Y89209D01*
X64409D01*
Y89110D01*
X64508D01*
Y89011D01*
X64608D01*
Y88911D01*
X64707D01*
Y88812D01*
X64806D01*
Y88713D01*
X64906D01*
Y88613D01*
X65005D01*
Y88514D01*
X65104D01*
Y88415D01*
X65203D01*
Y88315D01*
X65303D01*
Y88216D01*
X65402D01*
Y88117D01*
X65303D01*
Y88017D01*
X65402D01*
Y87918D01*
X65501D01*
Y87819D01*
X65601D01*
Y87719D01*
X65501D01*
Y87620D01*
X65601D01*
Y87521D01*
X65501D01*
Y87422D01*
X65601D01*
Y87322D01*
Y87223D01*
Y87124D01*
Y87024D01*
Y86925D01*
X65700D01*
Y86826D01*
X65601D01*
Y86726D01*
Y86627D01*
Y86528D01*
X65700D01*
Y86428D01*
X65601D01*
Y86329D01*
X65501D01*
Y86229D01*
X65601D01*
Y86130D01*
Y86031D01*
Y85931D01*
X65501D01*
Y85832D01*
X65601D01*
Y85733D01*
X65501D01*
Y85634D01*
X65601D01*
Y85534D01*
X65501D01*
Y85435D01*
X65601D01*
Y85336D01*
X65501D01*
Y85435D01*
X65402D01*
Y85336D01*
X65501D01*
Y85236D01*
X65402D01*
Y85137D01*
X65303D01*
Y85038D01*
X65402D01*
Y84938D01*
X65303D01*
Y84839D01*
X65402D01*
Y84740D01*
X65303D01*
Y84640D01*
X65203D01*
Y84740D01*
X65104D01*
Y84640D01*
X65203D01*
Y84541D01*
Y84442D01*
Y84342D01*
X65104D01*
Y84243D01*
X65203D01*
Y84144D01*
X65104D01*
Y84044D01*
X65005D01*
Y83945D01*
X64906D01*
Y83846D01*
Y83746D01*
Y83647D01*
X64806D01*
Y83548D01*
X64707D01*
Y83448D01*
X64806D01*
Y83349D01*
X64707D01*
Y83448D01*
X64608D01*
Y83349D01*
X64508D01*
Y83250D01*
X64608D01*
Y83150D01*
X64508D01*
Y83051D01*
X64409D01*
Y82952D01*
X64310D01*
Y82852D01*
X64210D01*
Y82753D01*
X64111D01*
Y82654D01*
X64012D01*
Y82554D01*
X63912D01*
Y82455D01*
X63813D01*
Y82356D01*
X63714D01*
Y82256D01*
X63614D01*
Y82157D01*
X63515D01*
Y82058D01*
X63416D01*
Y81958D01*
X63316D01*
Y81859D01*
X63217D01*
Y81958D01*
X63118D01*
Y81859D01*
X63217D01*
Y81760D01*
X62919D01*
Y81660D01*
X62820D01*
Y81561D01*
X62522D01*
Y81462D01*
X62422D01*
Y81561D01*
X62323D01*
Y81462D01*
X62422D01*
Y81362D01*
X62124D01*
Y81263D01*
X62025D01*
Y81362D01*
X61926D01*
Y81263D01*
X61826D01*
Y81164D01*
X61727D01*
Y81263D01*
X61628D01*
Y81164D01*
X61330D01*
Y81064D01*
X61230D01*
Y81164D01*
X61131D01*
Y81064D01*
X61230D01*
Y80965D01*
X61131D01*
Y81064D01*
X60833D01*
Y80965D01*
X60734D01*
Y81064D01*
X60634D01*
Y80965D01*
X60535D01*
Y81064D01*
X60436D01*
Y80965D01*
X60336D01*
Y81064D01*
X60237D01*
Y80965D01*
X60138D01*
Y81064D01*
X60038D01*
Y80965D01*
X59939D01*
Y81064D01*
X59641D01*
Y81164D01*
X59542D01*
Y81064D01*
X59641D01*
Y80965D01*
X59542D01*
Y81064D01*
X59442D01*
Y81164D01*
X58946D01*
Y81263D01*
X58846D01*
Y81362D01*
X58548D01*
Y81462D01*
X58449D01*
Y81561D01*
X58151D01*
Y81660D01*
X58052D01*
Y81760D01*
X57952D01*
Y81859D01*
X57853D01*
Y81958D01*
X57754D01*
Y82058D01*
X57655D01*
Y82157D01*
X57555D01*
Y82256D01*
X57655D01*
Y82356D01*
X57555D01*
Y82455D01*
X57456D01*
Y82554D01*
X57357D01*
Y82654D01*
X57456D01*
Y82753D01*
X57357D01*
Y82852D01*
X57257D01*
Y82952D01*
X57158D01*
Y83051D01*
X57257D01*
Y83150D01*
X57158D01*
Y83250D01*
X57257D01*
Y83349D01*
X57158D01*
Y83448D01*
X57257D01*
Y83548D01*
X57158D01*
Y83647D01*
X57257D01*
Y83746D01*
X57158D01*
Y83846D01*
X57257D01*
Y83945D01*
X57158D01*
Y84044D01*
X57257D01*
Y84144D01*
X57158D01*
Y84243D01*
X57257D01*
Y84342D01*
X57158D01*
Y84442D01*
X57257D01*
Y84541D01*
X57158D01*
Y84640D01*
X57257D01*
Y84740D01*
Y84839D01*
Y84938D01*
X57158D01*
Y85038D01*
X57257D01*
Y85137D01*
X57357D01*
Y85236D01*
X57456D01*
Y85336D01*
X57357D01*
Y85435D01*
X57456D01*
Y85534D01*
X57357D01*
Y85634D01*
X57456D01*
Y85733D01*
X57555D01*
Y85832D01*
X57456D01*
Y85931D01*
X57555D01*
Y85832D01*
X57655D01*
Y85931D01*
X57555D01*
Y86031D01*
X57655D01*
Y86130D01*
X57555D01*
Y86229D01*
X57655D01*
Y86329D01*
X57754D01*
Y86428D01*
X57853D01*
Y86528D01*
X57754D01*
Y86627D01*
X57853D01*
Y86726D01*
X57952D01*
Y86826D01*
Y86925D01*
Y87024D01*
X58052D01*
Y87124D01*
X58151D01*
Y87223D01*
X58250D01*
Y87322D01*
Y87422D01*
Y87521D01*
X58350D01*
Y87422D01*
X58449D01*
Y87521D01*
X58350D01*
Y87620D01*
X58449D01*
Y87719D01*
X58548D01*
Y87819D01*
X58648D01*
Y87918D01*
X58747D01*
Y88017D01*
X58846D01*
Y88117D01*
X58747D01*
Y88216D01*
X58846D01*
Y88117D01*
X58946D01*
Y88216D01*
X59045D01*
Y88315D01*
X59144D01*
Y88415D01*
X59244D01*
Y88514D01*
X59343D01*
Y88613D01*
X59442D01*
Y88713D01*
X59542D01*
Y88613D01*
X59641D01*
Y88713D01*
Y88812D01*
X59840D01*
Y88911D01*
X59939D01*
Y89011D01*
X60237D01*
Y89110D01*
X60336D01*
Y89209D01*
X60634D01*
Y89309D01*
X60734D01*
Y89408D01*
X60833D01*
Y89309D01*
X60932D01*
Y89408D01*
X61230D01*
Y89507D01*
X61330D01*
Y89408D01*
X61429D01*
Y89507D01*
X61528D01*
Y89408D01*
X61628D01*
Y89507D01*
X61528D01*
Y89607D01*
X61628D01*
Y89507D01*
X61727D01*
Y89607D01*
X61826D01*
Y89507D01*
X61926D01*
Y89408D01*
X62025D01*
Y89507D01*
X61926D01*
Y89607D01*
X62025D01*
Y89507D01*
X62124D01*
Y89607D01*
X62224D01*
Y89507D01*
X62323D01*
Y89607D01*
X62422D01*
Y89507D01*
X62522D01*
Y89607D01*
X62820D01*
Y89507D01*
X62919D01*
Y89607D01*
X63018D01*
Y89507D01*
X63118D01*
Y89408D01*
X63217D01*
Y89507D01*
X63118D01*
Y89607D01*
X63217D01*
Y89507D01*
X63316D01*
Y89408D01*
X63416D01*
Y89507D01*
X63316D01*
Y89607D01*
X63416D01*
Y89507D01*
D02*
G37*
G36*
X110100Y89309D02*
X110001D01*
Y89209D01*
X110100D01*
Y89110D01*
X110001D01*
Y89011D01*
X110100D01*
Y88911D01*
X110001D01*
Y89011D01*
X109901D01*
Y88911D01*
X109802D01*
Y88812D01*
X109901D01*
Y88713D01*
X109802D01*
Y88613D01*
X109901D01*
Y88514D01*
X109802D01*
Y88415D01*
X109901D01*
Y88315D01*
X109802D01*
Y88216D01*
Y88117D01*
Y88017D01*
X109703D01*
Y87918D01*
X109604D01*
Y87819D01*
X109703D01*
Y87719D01*
X109604D01*
Y87620D01*
X109504D01*
Y87521D01*
X109405D01*
Y87620D01*
X109306D01*
Y87521D01*
X109206D01*
Y87620D01*
X109107D01*
Y87521D01*
X109008D01*
Y87620D01*
X108908D01*
Y87521D01*
X108809D01*
Y87620D01*
X108710D01*
Y87521D01*
X108610D01*
Y87620D01*
X108511D01*
Y87521D01*
X108412D01*
Y87620D01*
X108312D01*
Y87521D01*
X108213D01*
Y87620D01*
X108114D01*
Y87521D01*
X108014D01*
Y87620D01*
X107915D01*
Y87521D01*
X107816D01*
Y87620D01*
X107716D01*
Y87521D01*
X107617D01*
Y87620D01*
X107518D01*
Y87521D01*
X107418D01*
Y87620D01*
X107319D01*
Y87521D01*
X107220D01*
Y87422D01*
X107319D01*
Y87322D01*
X107220D01*
Y87223D01*
X107120D01*
Y87124D01*
Y87024D01*
Y86925D01*
X107021D01*
Y86826D01*
X107120D01*
Y86726D01*
X107021D01*
Y86627D01*
X107120D01*
Y86528D01*
X107021D01*
Y86428D01*
X106922D01*
Y86329D01*
X106822D01*
Y86229D01*
X106922D01*
Y86130D01*
X106822D01*
Y86031D01*
X106922D01*
Y85931D01*
X106822D01*
Y85832D01*
X106922D01*
Y85733D01*
X106822D01*
Y85634D01*
X106723D01*
Y85534D01*
X106822D01*
Y85435D01*
X106723D01*
Y85336D01*
X106624D01*
Y85236D01*
X106723D01*
Y85137D01*
X106624D01*
Y85038D01*
X106723D01*
Y84938D01*
X106624D01*
Y84839D01*
X106524D01*
Y84740D01*
X106425D01*
Y84640D01*
X106524D01*
Y84541D01*
X106425D01*
Y84442D01*
X106524D01*
Y84342D01*
X106425D01*
Y84243D01*
X106524D01*
Y84144D01*
X106425D01*
Y84044D01*
Y83945D01*
Y83846D01*
X106326D01*
Y83746D01*
X106226D01*
Y83647D01*
X106326D01*
Y83548D01*
X106226D01*
Y83448D01*
X106326D01*
Y83349D01*
X106226D01*
Y83250D01*
X106127D01*
Y83150D01*
X106226D01*
Y83051D01*
X106127D01*
Y82952D01*
Y82852D01*
Y82753D01*
X106028D01*
Y82654D01*
X106127D01*
Y82554D01*
X106028D01*
Y82455D01*
Y82356D01*
Y82256D01*
X105928D01*
Y82157D01*
Y82058D01*
Y81958D01*
X105829D01*
Y81859D01*
X105928D01*
Y81760D01*
X105829D01*
Y81660D01*
X105730D01*
Y81561D01*
Y81462D01*
Y81362D01*
Y81263D01*
Y81164D01*
X105630D01*
Y81263D01*
X105531D01*
Y81164D01*
X105432D01*
Y81263D01*
X105332D01*
Y81164D01*
X105233D01*
Y81263D01*
X105134D01*
Y81164D01*
X105034D01*
Y81263D01*
X104935D01*
Y81164D01*
X104836D01*
Y81263D01*
X104736D01*
Y81164D01*
X104637D01*
Y81263D01*
X104538D01*
Y81164D01*
X104438D01*
Y81263D01*
X104339D01*
Y81164D01*
X104240D01*
Y81263D01*
X104140D01*
Y81164D01*
X104041D01*
Y81263D01*
X103942D01*
Y81164D01*
X103842D01*
Y81263D01*
X103743D01*
Y81164D01*
X103644D01*
Y81263D01*
X103544D01*
Y81362D01*
X103445D01*
Y81462D01*
X103544D01*
Y81561D01*
X103445D01*
Y81660D01*
X103544D01*
Y81760D01*
X103644D01*
Y81859D01*
X103544D01*
Y81958D01*
X103644D01*
Y82058D01*
Y82157D01*
Y82256D01*
X103743D01*
Y82356D01*
X103644D01*
Y82455D01*
X103743D01*
Y82554D01*
X103644D01*
Y82654D01*
X103743D01*
Y82753D01*
X103842D01*
Y82852D01*
X103743D01*
Y82952D01*
X103842D01*
Y82852D01*
X103942D01*
Y82952D01*
X103842D01*
Y83051D01*
X103942D01*
Y83150D01*
X103842D01*
Y83250D01*
X103942D01*
Y83349D01*
Y83448D01*
Y83548D01*
X104041D01*
Y83647D01*
Y83746D01*
Y83846D01*
X104140D01*
Y83945D01*
X104041D01*
Y84044D01*
X104140D01*
Y84144D01*
X104041D01*
Y84243D01*
X104140D01*
Y84342D01*
X104240D01*
Y84442D01*
Y84541D01*
Y84640D01*
X104339D01*
Y84740D01*
X104240D01*
Y84839D01*
X104339D01*
Y84938D01*
Y85038D01*
Y85137D01*
X104438D01*
Y85236D01*
Y85336D01*
Y85435D01*
X104538D01*
Y85534D01*
X104438D01*
Y85634D01*
X104538D01*
Y85733D01*
X104438D01*
Y85832D01*
X104538D01*
Y85931D01*
X104637D01*
Y86031D01*
Y86130D01*
Y86229D01*
X104736D01*
Y86329D01*
X104637D01*
Y86428D01*
X104736D01*
Y86528D01*
Y86627D01*
Y86726D01*
X104836D01*
Y86826D01*
Y86925D01*
Y87024D01*
X104935D01*
Y87124D01*
X104836D01*
Y87223D01*
X104935D01*
Y87322D01*
X104836D01*
Y87422D01*
X104935D01*
Y87521D01*
X104836D01*
Y87620D01*
X104736D01*
Y87521D01*
X104637D01*
Y87620D01*
X104538D01*
Y87521D01*
X104438D01*
Y87620D01*
X104339D01*
Y87521D01*
X104240D01*
Y87620D01*
X104140D01*
Y87521D01*
X104041D01*
Y87620D01*
X103942D01*
Y87521D01*
X103842D01*
Y87620D01*
X103743D01*
Y87521D01*
X103644D01*
Y87620D01*
X103544D01*
Y87521D01*
X103445D01*
Y87620D01*
X103346D01*
Y87521D01*
X103246D01*
Y87620D01*
X103147D01*
Y87521D01*
X103048D01*
Y87620D01*
X102948D01*
Y87521D01*
X102849D01*
Y87620D01*
X102750D01*
Y87719D01*
X102650D01*
Y87819D01*
X102750D01*
Y87918D01*
X102650D01*
Y88017D01*
X102750D01*
Y88117D01*
X102849D01*
Y88216D01*
X102750D01*
Y88315D01*
X102849D01*
Y88415D01*
Y88514D01*
Y88613D01*
X102948D01*
Y88713D01*
Y88812D01*
Y88911D01*
X102849D01*
Y89011D01*
X103048D01*
Y89110D01*
Y89209D01*
X103147D01*
Y89309D01*
X103048D01*
Y89408D01*
X103147D01*
Y89309D01*
X103246D01*
Y89408D01*
X103942D01*
Y89309D01*
X104041D01*
Y89408D01*
X104736D01*
Y89309D01*
X104836D01*
Y89408D01*
X105531D01*
Y89309D01*
X105630D01*
Y89408D01*
X106326D01*
Y89309D01*
X106425D01*
Y89408D01*
X107120D01*
Y89309D01*
X107220D01*
Y89408D01*
X107915D01*
Y89309D01*
X108014D01*
Y89408D01*
X108710D01*
Y89309D01*
X108809D01*
Y89408D01*
X109504D01*
Y89309D01*
X109604D01*
Y89408D01*
X110100D01*
Y89309D01*
D02*
G37*
G36*
X98777D02*
X98876D01*
Y89209D01*
Y89110D01*
Y89011D01*
X98777D01*
Y88911D01*
X98677D01*
Y88812D01*
X98777D01*
Y88713D01*
X98677D01*
Y88613D01*
X98777D01*
Y88514D01*
X98677D01*
Y88415D01*
X98777D01*
Y88315D01*
X98677D01*
Y88216D01*
X98578D01*
Y88117D01*
X98677D01*
Y88017D01*
X98578D01*
Y87918D01*
X98479D01*
Y87819D01*
X98578D01*
Y87719D01*
X98479D01*
Y87620D01*
X98379D01*
Y87521D01*
X98280D01*
Y87620D01*
X98181D01*
Y87521D01*
X98081D01*
Y87620D01*
X97982D01*
Y87521D01*
X97883D01*
Y87620D01*
X97783D01*
Y87521D01*
X97684D01*
Y87620D01*
X97585D01*
Y87521D01*
X97485D01*
Y87620D01*
X97386D01*
Y87521D01*
X97287D01*
Y87620D01*
X97187D01*
Y87521D01*
X97088D01*
Y87620D01*
X96989D01*
Y87521D01*
X96889D01*
Y87620D01*
X96790D01*
Y87521D01*
X96691D01*
Y87620D01*
X96591D01*
Y87521D01*
X96492D01*
Y87620D01*
X96393D01*
Y87521D01*
X96293D01*
Y87620D01*
X96194D01*
Y87521D01*
X96095D01*
Y87620D01*
X95995D01*
Y87521D01*
X95896D01*
Y87422D01*
X95797D01*
Y87322D01*
X95896D01*
Y87223D01*
X95797D01*
Y87124D01*
X95697D01*
Y87024D01*
X95797D01*
Y86925D01*
X95697D01*
Y86826D01*
X95797D01*
Y86726D01*
X95697D01*
Y86627D01*
X95797D01*
Y86528D01*
X95697D01*
Y86627D01*
X95598D01*
Y86528D01*
X95697D01*
Y86428D01*
X95598D01*
Y86329D01*
X95499D01*
Y86229D01*
X95598D01*
Y86130D01*
X95697D01*
Y86229D01*
X95797D01*
Y86130D01*
X95896D01*
Y86031D01*
X95995D01*
Y86130D01*
X95896D01*
Y86229D01*
X95995D01*
Y86130D01*
X96095D01*
Y86229D01*
X96194D01*
Y86130D01*
X96293D01*
Y86031D01*
X96393D01*
Y86130D01*
X96293D01*
Y86229D01*
X96393D01*
Y86130D01*
X96492D01*
Y86229D01*
X96591D01*
Y86130D01*
X96691D01*
Y86031D01*
X96790D01*
Y86130D01*
X96691D01*
Y86229D01*
X96790D01*
Y86130D01*
X96889D01*
Y86229D01*
X96989D01*
Y86130D01*
X97088D01*
Y86031D01*
X97187D01*
Y86130D01*
X97088D01*
Y86229D01*
X97187D01*
Y86130D01*
X97287D01*
Y86229D01*
X97386D01*
Y86130D01*
X97485D01*
Y86031D01*
X97585D01*
Y86130D01*
X97485D01*
Y86229D01*
X97585D01*
Y86130D01*
X97684D01*
Y86229D01*
X97783D01*
Y86130D01*
X97883D01*
Y86031D01*
X97982D01*
Y85931D01*
Y85832D01*
Y85733D01*
X97883D01*
Y85634D01*
X97982D01*
Y85534D01*
X97883D01*
Y85435D01*
Y85336D01*
Y85236D01*
X97783D01*
Y85137D01*
X97684D01*
Y85038D01*
X97783D01*
Y84938D01*
X97684D01*
Y84839D01*
X97783D01*
Y84740D01*
X97684D01*
Y84640D01*
X97783D01*
Y84541D01*
X97485D01*
Y84442D01*
X97585D01*
Y84342D01*
X97485D01*
Y84442D01*
X97386D01*
Y84541D01*
X97287D01*
Y84442D01*
X97187D01*
Y84541D01*
X97088D01*
Y84442D01*
X97187D01*
Y84342D01*
X97088D01*
Y84442D01*
X96989D01*
Y84541D01*
X96889D01*
Y84442D01*
X96790D01*
Y84541D01*
X96691D01*
Y84442D01*
X96591D01*
Y84541D01*
X96492D01*
Y84442D01*
X96393D01*
Y84541D01*
X96293D01*
Y84442D01*
X96393D01*
Y84342D01*
X96293D01*
Y84442D01*
X96194D01*
Y84541D01*
X96095D01*
Y84442D01*
X95995D01*
Y84541D01*
X95896D01*
Y84442D01*
X95995D01*
Y84342D01*
X95896D01*
Y84442D01*
X95797D01*
Y84541D01*
X95697D01*
Y84442D01*
X95598D01*
Y84541D01*
X95499D01*
Y84442D01*
X95598D01*
Y84342D01*
X95499D01*
Y84442D01*
X95399D01*
Y84541D01*
X95300D01*
Y84442D01*
X95201D01*
Y84541D01*
X95101D01*
Y84442D01*
X95201D01*
Y84342D01*
X95101D01*
Y84243D01*
Y84144D01*
Y84044D01*
X95002D01*
Y83945D01*
X94903D01*
Y83846D01*
X95002D01*
Y83746D01*
X94903D01*
Y83647D01*
X95002D01*
Y83548D01*
X94903D01*
Y83448D01*
Y83349D01*
Y83250D01*
X94804D01*
Y83150D01*
Y83051D01*
Y82952D01*
X94903D01*
Y83051D01*
X95201D01*
Y82952D01*
X95300D01*
Y83051D01*
X95598D01*
Y82952D01*
X95697D01*
Y83051D01*
X95995D01*
Y82952D01*
X96095D01*
Y83051D01*
X96393D01*
Y82952D01*
X96492D01*
Y83051D01*
X96790D01*
Y82952D01*
X96889D01*
Y83051D01*
X97187D01*
Y82952D01*
X97287D01*
Y82852D01*
X97386D01*
Y82753D01*
X97287D01*
Y82654D01*
X97386D01*
Y82554D01*
X97287D01*
Y82654D01*
X97187D01*
Y82554D01*
Y82455D01*
Y82356D01*
X97088D01*
Y82256D01*
X97187D01*
Y82157D01*
X97088D01*
Y82058D01*
X97187D01*
Y81958D01*
X97088D01*
Y81859D01*
Y81760D01*
Y81660D01*
X96989D01*
Y81561D01*
X96889D01*
Y81462D01*
X96989D01*
Y81362D01*
X96889D01*
Y81263D01*
X96790D01*
Y81164D01*
X96691D01*
Y81263D01*
X96591D01*
Y81164D01*
X96492D01*
Y81263D01*
X96393D01*
Y81164D01*
X96293D01*
Y81263D01*
X96194D01*
Y81164D01*
X96095D01*
Y81263D01*
X95995D01*
Y81164D01*
X95896D01*
Y81263D01*
X95797D01*
Y81164D01*
X95697D01*
Y81263D01*
X95598D01*
Y81164D01*
X95499D01*
Y81263D01*
X95399D01*
Y81164D01*
X95300D01*
Y81263D01*
X95201D01*
Y81164D01*
X95101D01*
Y81263D01*
X95002D01*
Y81164D01*
X94903D01*
Y81263D01*
X94804D01*
Y81164D01*
X94704D01*
Y81263D01*
X94605D01*
Y81164D01*
X94506D01*
Y81263D01*
X94406D01*
Y81164D01*
X94307D01*
Y81263D01*
X94208D01*
Y81164D01*
X94108D01*
Y81263D01*
X94009D01*
Y81164D01*
X93910D01*
Y81263D01*
X93810D01*
Y81164D01*
X93711D01*
Y81263D01*
X93612D01*
Y81164D01*
X93512D01*
Y81263D01*
X93413D01*
Y81164D01*
X93314D01*
Y81263D01*
X93214D01*
Y81164D01*
X93115D01*
Y81263D01*
X93016D01*
Y81164D01*
X92916D01*
Y81263D01*
X92817D01*
Y81164D01*
X92718D01*
Y81263D01*
X92618D01*
Y81164D01*
X92519D01*
Y81263D01*
X92420D01*
Y81164D01*
X92320D01*
Y81263D01*
X92221D01*
Y81164D01*
X92122D01*
Y81263D01*
Y81362D01*
Y81462D01*
X92221D01*
Y81561D01*
X92122D01*
Y81660D01*
X92221D01*
Y81760D01*
X92122D01*
Y81859D01*
X92221D01*
Y81958D01*
X92320D01*
Y82058D01*
X92221D01*
Y82157D01*
X92320D01*
Y82256D01*
X92420D01*
Y82356D01*
X92320D01*
Y82455D01*
X92420D01*
Y82554D01*
X92320D01*
Y82654D01*
X92420D01*
Y82753D01*
X92320D01*
Y82852D01*
X92420D01*
Y82952D01*
X92519D01*
Y83051D01*
X92618D01*
Y83150D01*
X92519D01*
Y83250D01*
X92618D01*
Y83349D01*
X92519D01*
Y83448D01*
X92618D01*
Y83548D01*
X92718D01*
Y83647D01*
X92618D01*
Y83746D01*
X92718D01*
Y83846D01*
X92817D01*
Y83945D01*
X92718D01*
Y84044D01*
X92817D01*
Y84144D01*
X92718D01*
Y84243D01*
X92817D01*
Y84342D01*
Y84442D01*
Y84541D01*
X92916D01*
Y84640D01*
X93016D01*
Y84740D01*
X92916D01*
Y84839D01*
X93016D01*
Y84938D01*
X92916D01*
Y85038D01*
X93016D01*
Y85137D01*
Y85236D01*
Y85336D01*
X93115D01*
Y85435D01*
Y85534D01*
Y85634D01*
X93214D01*
Y85733D01*
X93115D01*
Y85832D01*
X93214D01*
Y85931D01*
Y86031D01*
Y86130D01*
X93314D01*
Y86229D01*
Y86329D01*
Y86428D01*
X93413D01*
Y86528D01*
X93314D01*
Y86627D01*
X93413D01*
Y86726D01*
Y86826D01*
Y86925D01*
X93512D01*
Y87024D01*
Y87124D01*
Y87223D01*
X93612D01*
Y87322D01*
X93512D01*
Y87422D01*
X93612D01*
Y87521D01*
X93512D01*
Y87620D01*
X93612D01*
Y87719D01*
X93711D01*
Y87819D01*
X93810D01*
Y87918D01*
X93711D01*
Y88017D01*
X93810D01*
Y88117D01*
X93711D01*
Y88216D01*
X93810D01*
Y88315D01*
Y88415D01*
Y88514D01*
X93711D01*
Y88613D01*
X93810D01*
Y88514D01*
X93910D01*
Y88613D01*
Y88713D01*
Y88812D01*
X94009D01*
Y88911D01*
X93910D01*
Y89011D01*
X94009D01*
Y89110D01*
X93910D01*
Y89209D01*
X94009D01*
Y89309D01*
X94108D01*
Y89408D01*
X94406D01*
Y89309D01*
X94506D01*
Y89408D01*
X95201D01*
Y89309D01*
X95300D01*
Y89408D01*
X95995D01*
Y89309D01*
X96095D01*
Y89408D01*
X96790D01*
Y89309D01*
X96889D01*
Y89408D01*
X97585D01*
Y89309D01*
X97684D01*
Y89408D01*
X98379D01*
Y89309D01*
X98479D01*
Y89408D01*
X98777D01*
Y89309D01*
D02*
G37*
G36*
X90036D02*
X89936D01*
Y89209D01*
X89837D01*
Y89110D01*
X89539D01*
Y89011D01*
X89638D01*
Y88911D01*
X89340D01*
Y88812D01*
X89241D01*
Y88713D01*
X89142D01*
Y88613D01*
X89042D01*
Y88514D01*
X88943D01*
Y88415D01*
X88844D01*
Y88315D01*
X88744D01*
Y88216D01*
X88645D01*
Y88315D01*
X88546D01*
Y88216D01*
X88645D01*
Y88117D01*
X88546D01*
Y88017D01*
X88446D01*
Y88117D01*
X88347D01*
Y88017D01*
X88446D01*
Y87918D01*
X88148D01*
Y87819D01*
X88248D01*
Y87719D01*
X88148D01*
Y87819D01*
X88049D01*
Y87719D01*
X87950D01*
Y87620D01*
X87850D01*
Y87521D01*
X87751D01*
Y87422D01*
X87850D01*
Y87322D01*
X87751D01*
Y87422D01*
X87652D01*
Y87322D01*
X87552D01*
Y87223D01*
X87453D01*
Y87124D01*
X87354D01*
Y87024D01*
X87255D01*
Y86925D01*
X87155D01*
Y86826D01*
X87056D01*
Y86726D01*
X86758D01*
Y86627D01*
Y86528D01*
X86559D01*
Y86428D01*
X86460D01*
Y86329D01*
X86361D01*
Y86229D01*
X86261D01*
Y86130D01*
X86162D01*
Y86031D01*
X86063D01*
Y85931D01*
X85963D01*
Y85832D01*
X85864D01*
Y85931D01*
X85765D01*
Y85832D01*
X85864D01*
Y85733D01*
X85566D01*
Y85634D01*
X85665D01*
Y85534D01*
X85367D01*
Y85435D01*
X85467D01*
Y85336D01*
X85367D01*
Y85435D01*
X85268D01*
Y85336D01*
X85169D01*
Y85236D01*
X85268D01*
Y85137D01*
X85367D01*
Y85038D01*
X85467D01*
Y84938D01*
X85566D01*
Y84839D01*
X85665D01*
Y84740D01*
X85566D01*
Y84640D01*
X85665D01*
Y84541D01*
X85765D01*
Y84442D01*
X85864D01*
Y84342D01*
X85963D01*
Y84243D01*
X86063D01*
Y84144D01*
X85963D01*
Y84044D01*
X86063D01*
Y83945D01*
X86162D01*
Y83846D01*
X86261D01*
Y83746D01*
X86361D01*
Y83647D01*
X86460D01*
Y83548D01*
X86361D01*
Y83448D01*
X86460D01*
Y83349D01*
X86559D01*
Y83250D01*
X86659D01*
Y83150D01*
X86758D01*
Y83051D01*
X86857D01*
Y82952D01*
X86758D01*
Y82852D01*
X86957D01*
Y82753D01*
Y82654D01*
X87056D01*
Y82554D01*
X87155D01*
Y82455D01*
X87255D01*
Y82356D01*
Y82256D01*
X87453D01*
Y82157D01*
X87354D01*
Y82058D01*
X87453D01*
Y81958D01*
X87552D01*
Y81859D01*
X87652D01*
Y81760D01*
X87552D01*
Y81660D01*
X87751D01*
Y81561D01*
Y81462D01*
X87850D01*
Y81362D01*
X87950D01*
Y81263D01*
X87850D01*
Y81164D01*
X87751D01*
Y81263D01*
X87652D01*
Y81164D01*
X87552D01*
Y81263D01*
X87453D01*
Y81164D01*
X87354D01*
Y81263D01*
X87255D01*
Y81164D01*
X87155D01*
Y81263D01*
X87056D01*
Y81164D01*
X86957D01*
Y81263D01*
X86857D01*
Y81164D01*
X86758D01*
Y81263D01*
X86659D01*
Y81164D01*
X86559D01*
Y81263D01*
X86460D01*
Y81164D01*
X86361D01*
Y81263D01*
X86261D01*
Y81164D01*
X86162D01*
Y81263D01*
X86063D01*
Y81164D01*
X85963D01*
Y81263D01*
X85864D01*
Y81164D01*
X85765D01*
Y81263D01*
X85665D01*
Y81164D01*
X85566D01*
Y81263D01*
X85467D01*
Y81164D01*
X85367D01*
Y81263D01*
X85268D01*
Y81362D01*
X85169D01*
Y81462D01*
X85069D01*
Y81561D01*
X84970D01*
Y81660D01*
X84871D01*
Y81760D01*
X84771D01*
Y81859D01*
X84871D01*
Y81958D01*
X84771D01*
Y82058D01*
X84672D01*
Y82157D01*
X84573D01*
Y82256D01*
X84473D01*
Y82356D01*
X84374D01*
Y82455D01*
X84473D01*
Y82554D01*
X84374D01*
Y82654D01*
X84275D01*
Y82753D01*
X84175D01*
Y82852D01*
X84076D01*
Y82952D01*
X83977D01*
Y83051D01*
X84076D01*
Y83150D01*
X83977D01*
Y83250D01*
X83877D01*
Y83349D01*
X83778D01*
Y83448D01*
X83679D01*
Y83548D01*
X83579D01*
Y83647D01*
Y83746D01*
X83381D01*
Y83846D01*
X83480D01*
Y83945D01*
X83381D01*
Y84044D01*
X83281D01*
Y84144D01*
X83182D01*
Y84243D01*
X83281D01*
Y84342D01*
X83182D01*
Y84442D01*
X83083D01*
Y84342D01*
X82983D01*
Y84243D01*
X83083D01*
Y84144D01*
X82983D01*
Y84243D01*
X82884D01*
Y84144D01*
X82785D01*
Y84044D01*
X82884D01*
Y83945D01*
X82785D01*
Y83846D01*
X82884D01*
Y83746D01*
X82785D01*
Y83647D01*
X82884D01*
Y83548D01*
X82785D01*
Y83448D01*
X82685D01*
Y83349D01*
X82785D01*
Y83250D01*
X82685D01*
Y83150D01*
X82586D01*
Y83051D01*
X82685D01*
Y82952D01*
X82586D01*
Y82852D01*
X82685D01*
Y82753D01*
X82586D01*
Y82654D01*
X82487D01*
Y82554D01*
X82586D01*
Y82455D01*
X82487D01*
Y82554D01*
X82387D01*
Y82455D01*
X82487D01*
Y82356D01*
X82387D01*
Y82256D01*
X82487D01*
Y82157D01*
X82387D01*
Y82058D01*
X82487D01*
Y81958D01*
X82387D01*
Y81859D01*
Y81760D01*
Y81660D01*
X82288D01*
Y81561D01*
X82189D01*
Y81462D01*
X82288D01*
Y81362D01*
X82189D01*
Y81263D01*
X82089D01*
Y81164D01*
X81990D01*
Y81263D01*
X81891D01*
Y81164D01*
X81791D01*
Y81263D01*
X81692D01*
Y81164D01*
X81593D01*
Y81263D01*
X81493D01*
Y81164D01*
X81394D01*
Y81263D01*
X81295D01*
Y81164D01*
X81195D01*
Y81263D01*
X81096D01*
Y81164D01*
X80997D01*
Y81263D01*
X80897D01*
Y81164D01*
X80798D01*
Y81263D01*
X80699D01*
Y81164D01*
X80599D01*
Y81263D01*
X80500D01*
Y81164D01*
X80401D01*
Y81263D01*
X80301D01*
Y81164D01*
X80202D01*
Y81263D01*
X80103D01*
Y81164D01*
X80003D01*
Y81263D01*
X79904D01*
Y81362D01*
X80003D01*
Y81462D01*
Y81561D01*
Y81660D01*
X80103D01*
Y81760D01*
X80003D01*
Y81859D01*
X80103D01*
Y81958D01*
X80003D01*
Y82058D01*
X80103D01*
Y82157D01*
X80202D01*
Y82256D01*
X80301D01*
Y82356D01*
X80202D01*
Y82455D01*
X80301D01*
Y82554D01*
X80202D01*
Y82654D01*
X80301D01*
Y82753D01*
Y82852D01*
Y82952D01*
X80401D01*
Y83051D01*
Y83150D01*
Y83250D01*
X80500D01*
Y83349D01*
X80401D01*
Y83448D01*
X80500D01*
Y83548D01*
Y83647D01*
Y83746D01*
X80599D01*
Y83846D01*
Y83945D01*
Y84044D01*
X80699D01*
Y84144D01*
X80599D01*
Y84243D01*
X80699D01*
Y84342D01*
Y84442D01*
Y84541D01*
X80798D01*
Y84640D01*
Y84740D01*
Y84839D01*
X80897D01*
Y84938D01*
X80798D01*
Y85038D01*
X80897D01*
Y85137D01*
X80798D01*
Y85236D01*
X80897D01*
Y85336D01*
X80997D01*
Y85435D01*
X81096D01*
Y85534D01*
X80997D01*
Y85634D01*
X81096D01*
Y85733D01*
X80997D01*
Y85832D01*
X81096D01*
Y85931D01*
X80997D01*
Y86031D01*
X81096D01*
Y86130D01*
X80997D01*
Y86229D01*
X81096D01*
Y86130D01*
X81195D01*
Y86229D01*
Y86329D01*
Y86428D01*
X81295D01*
Y86528D01*
X81195D01*
Y86627D01*
X81295D01*
Y86726D01*
X81195D01*
Y86826D01*
X81295D01*
Y86925D01*
X81394D01*
Y87024D01*
X81295D01*
Y87124D01*
X81394D01*
Y87024D01*
X81493D01*
Y87124D01*
X81394D01*
Y87223D01*
X81493D01*
Y87322D01*
X81394D01*
Y87422D01*
X81493D01*
Y87521D01*
X81394D01*
Y87620D01*
X81493D01*
Y87719D01*
Y87819D01*
X81593D01*
Y87918D01*
Y88017D01*
X81692D01*
Y88117D01*
X81593D01*
Y88216D01*
X81692D01*
Y88315D01*
X81593D01*
Y88415D01*
X81692D01*
Y88514D01*
X81791D01*
Y88613D01*
X81692D01*
Y88713D01*
X81791D01*
Y88613D01*
X81891D01*
Y88713D01*
X81791D01*
Y88812D01*
Y88911D01*
Y89011D01*
X81891D01*
Y89110D01*
X81791D01*
Y89209D01*
X81891D01*
Y89309D01*
X81990D01*
Y89408D01*
X82487D01*
Y89309D01*
X82586D01*
Y89408D01*
X83281D01*
Y89309D01*
X83381D01*
Y89408D01*
X84076D01*
Y89309D01*
X84175D01*
Y89209D01*
Y89110D01*
Y89011D01*
X84076D01*
Y88911D01*
X83977D01*
Y88812D01*
X84076D01*
Y88713D01*
X83977D01*
Y88613D01*
X84076D01*
Y88514D01*
X83977D01*
Y88415D01*
Y88315D01*
Y88216D01*
X83877D01*
Y88117D01*
Y88017D01*
Y87918D01*
X83778D01*
Y87819D01*
X83877D01*
Y87719D01*
X83778D01*
Y87620D01*
Y87521D01*
Y87422D01*
X83679D01*
Y87322D01*
Y87223D01*
Y87124D01*
X83579D01*
Y87024D01*
X83679D01*
Y86925D01*
X83579D01*
Y86826D01*
Y86726D01*
Y86627D01*
X83480D01*
Y86528D01*
Y86428D01*
Y86329D01*
X83381D01*
Y86229D01*
X83679D01*
Y86329D01*
X83778D01*
Y86428D01*
X83877D01*
Y86528D01*
X83778D01*
Y86627D01*
X83877D01*
Y86528D01*
X83977D01*
Y86627D01*
X84076D01*
Y86726D01*
X84175D01*
Y86826D01*
X84275D01*
Y86925D01*
X84374D01*
Y87024D01*
X84672D01*
Y87124D01*
X84573D01*
Y87223D01*
X84871D01*
Y87322D01*
X84970D01*
Y87422D01*
X85069D01*
Y87521D01*
X85169D01*
Y87620D01*
X85268D01*
Y87719D01*
X85367D01*
Y87819D01*
X85467D01*
Y87918D01*
X85566D01*
Y88017D01*
X85665D01*
Y88117D01*
X85765D01*
Y88216D01*
X86063D01*
Y88315D01*
X85963D01*
Y88415D01*
X86261D01*
Y88514D01*
X86162D01*
Y88613D01*
X86261D01*
Y88514D01*
X86361D01*
Y88613D01*
X86460D01*
Y88713D01*
X86559D01*
Y88812D01*
X86659D01*
Y88911D01*
X86758D01*
Y89011D01*
X86857D01*
Y89110D01*
X86957D01*
Y89011D01*
X87056D01*
Y89110D01*
X86957D01*
Y89209D01*
X87056D01*
Y89309D01*
X87155D01*
Y89209D01*
X87255D01*
Y89309D01*
X87155D01*
Y89408D01*
X87255D01*
Y89309D01*
X87354D01*
Y89408D01*
X88049D01*
Y89309D01*
X88148D01*
Y89408D01*
X88844D01*
Y89309D01*
X88943D01*
Y89408D01*
X89638D01*
Y89309D01*
X89738D01*
Y89408D01*
X90036D01*
Y89309D01*
D02*
G37*
G36*
X51695D02*
X51794D01*
Y89209D01*
X51893D01*
Y89309D01*
X51993D01*
Y89209D01*
X52291D01*
Y89110D01*
X52390D01*
Y89011D01*
X52688D01*
Y88911D01*
X52787D01*
Y88812D01*
X52887D01*
Y88713D01*
X52986D01*
Y88613D01*
X53085D01*
Y88514D01*
X53185D01*
Y88415D01*
X53284D01*
Y88315D01*
Y88216D01*
X53383D01*
Y88117D01*
Y88017D01*
X53483D01*
Y87918D01*
X53582D01*
Y87819D01*
Y87719D01*
Y87620D01*
Y87521D01*
Y87422D01*
X53681D01*
Y87322D01*
X53582D01*
Y87223D01*
X53681D01*
Y87124D01*
X53582D01*
Y87024D01*
X53681D01*
Y86925D01*
X53582D01*
Y86826D01*
Y86726D01*
Y86627D01*
Y86528D01*
Y86428D01*
X53483D01*
Y86329D01*
Y86229D01*
Y86130D01*
X53383D01*
Y86031D01*
Y85931D01*
X53284D01*
Y85832D01*
Y85733D01*
X53185D01*
Y85634D01*
Y85534D01*
X53085D01*
Y85435D01*
Y85336D01*
X52986D01*
Y85236D01*
X52887D01*
Y85137D01*
X52787D01*
Y85038D01*
X52887D01*
Y84938D01*
X52787D01*
Y85038D01*
X52688D01*
Y84938D01*
X52589D01*
Y84839D01*
X52489D01*
Y84740D01*
X52390D01*
Y84640D01*
X52489D01*
Y84541D01*
X52390D01*
Y84640D01*
X52291D01*
Y84541D01*
X52191D01*
Y84442D01*
X52092D01*
Y84342D01*
X51794D01*
Y84243D01*
X51695D01*
Y84144D01*
X51397D01*
Y84044D01*
X51099D01*
Y83945D01*
X50999D01*
Y83846D01*
X51099D01*
Y83746D01*
X50999D01*
Y83647D01*
X51099D01*
Y83548D01*
X51198D01*
Y83448D01*
X51297D01*
Y83349D01*
X51198D01*
Y83250D01*
X51297D01*
Y83150D01*
X51198D01*
Y83051D01*
X51397D01*
Y82952D01*
Y82852D01*
X51496D01*
Y82753D01*
Y82654D01*
X51595D01*
Y82554D01*
Y82455D01*
X51695D01*
Y82356D01*
X51595D01*
Y82256D01*
X51794D01*
Y82157D01*
Y82058D01*
X51893D01*
Y81958D01*
Y81859D01*
Y81760D01*
X51993D01*
Y81660D01*
X52092D01*
Y81561D01*
X51993D01*
Y81462D01*
X52092D01*
Y81362D01*
X52191D01*
Y81263D01*
X52092D01*
Y81164D01*
X51993D01*
Y81263D01*
X51893D01*
Y81164D01*
X51794D01*
Y81263D01*
X51695D01*
Y81164D01*
X51595D01*
Y81263D01*
X51496D01*
Y81164D01*
X51397D01*
Y81263D01*
X51297D01*
Y81164D01*
X51198D01*
Y81263D01*
X51099D01*
Y81164D01*
X50999D01*
Y81263D01*
X50900D01*
Y81164D01*
X50801D01*
Y81263D01*
X50701D01*
Y81164D01*
X50602D01*
Y81263D01*
X50503D01*
Y81164D01*
X50403D01*
Y81263D01*
X50304D01*
Y81164D01*
X50205D01*
Y81263D01*
X50106D01*
Y81164D01*
X50006D01*
Y81263D01*
X49907D01*
Y81362D01*
X49808D01*
Y81263D01*
X49907D01*
Y81164D01*
X49808D01*
Y81263D01*
X49708D01*
Y81362D01*
X49609D01*
Y81462D01*
X49708D01*
Y81561D01*
X49609D01*
Y81660D01*
Y81760D01*
Y81859D01*
X49510D01*
Y81958D01*
X49410D01*
Y82058D01*
X49510D01*
Y82157D01*
X49410D01*
Y82256D01*
X49311D01*
Y82356D01*
X49211D01*
Y82455D01*
X49311D01*
Y82554D01*
X49211D01*
Y82654D01*
X49112D01*
Y82753D01*
X49013D01*
Y82852D01*
X49112D01*
Y82952D01*
X49013D01*
Y83051D01*
Y83150D01*
Y83250D01*
X48913D01*
Y83349D01*
X48814D01*
Y83448D01*
X48913D01*
Y83548D01*
X48616D01*
Y83448D01*
X48516D01*
Y83349D01*
Y83250D01*
Y83150D01*
X48417D01*
Y83051D01*
X48516D01*
Y82952D01*
X48417D01*
Y82852D01*
Y82753D01*
Y82654D01*
X48318D01*
Y82554D01*
Y82455D01*
Y82356D01*
X48218D01*
Y82256D01*
X48318D01*
Y82157D01*
X48218D01*
Y82058D01*
X48318D01*
Y81958D01*
X48218D01*
Y81859D01*
X48119D01*
Y81760D01*
X48218D01*
Y81660D01*
X48119D01*
Y81561D01*
X48020D01*
Y81462D01*
X48119D01*
Y81362D01*
X48020D01*
Y81263D01*
X47920D01*
Y81164D01*
X47821D01*
Y81263D01*
X47722D01*
Y81164D01*
X47622D01*
Y81263D01*
X47523D01*
Y81164D01*
X47424D01*
Y81263D01*
X47324D01*
Y81164D01*
X47225D01*
Y81263D01*
X47126D01*
Y81164D01*
X47026D01*
Y81263D01*
X46927D01*
Y81164D01*
X46828D01*
Y81263D01*
X46728D01*
Y81164D01*
X46629D01*
Y81263D01*
X46530D01*
Y81164D01*
X46430D01*
Y81263D01*
X46331D01*
Y81164D01*
X46232D01*
Y81263D01*
X46132D01*
Y81164D01*
X46033D01*
Y81263D01*
X45934D01*
Y81164D01*
X45834D01*
Y81263D01*
X45735D01*
Y81362D01*
X45834D01*
Y81462D01*
Y81561D01*
Y81660D01*
X45934D01*
Y81760D01*
X45834D01*
Y81859D01*
X45934D01*
Y81958D01*
X45834D01*
Y82058D01*
X45934D01*
Y82157D01*
X46033D01*
Y82256D01*
X46132D01*
Y82356D01*
X46033D01*
Y82455D01*
X46132D01*
Y82554D01*
X46033D01*
Y82654D01*
X46132D01*
Y82753D01*
Y82852D01*
Y82952D01*
X46033D01*
Y83051D01*
X46132D01*
Y82952D01*
X46232D01*
Y83051D01*
X46331D01*
Y83150D01*
X46232D01*
Y83250D01*
X46331D01*
Y83349D01*
X46232D01*
Y83448D01*
X46331D01*
Y83548D01*
X46232D01*
Y83647D01*
X46331D01*
Y83746D01*
X46430D01*
Y83846D01*
X46530D01*
Y83945D01*
X46430D01*
Y84044D01*
X46530D01*
Y84144D01*
X46430D01*
Y84243D01*
X46530D01*
Y84342D01*
Y84442D01*
Y84541D01*
Y84640D01*
X46629D01*
Y84740D01*
Y84839D01*
X46728D01*
Y84938D01*
X46629D01*
Y85038D01*
X46728D01*
Y85137D01*
X46629D01*
Y85236D01*
X46728D01*
Y85336D01*
X46828D01*
Y85435D01*
X46927D01*
Y85534D01*
X46828D01*
Y85634D01*
X46927D01*
Y85733D01*
X46828D01*
Y85832D01*
X46927D01*
Y85931D01*
Y86031D01*
Y86130D01*
Y86229D01*
X47026D01*
Y86329D01*
Y86428D01*
X47126D01*
Y86528D01*
X47026D01*
Y86627D01*
X47126D01*
Y86726D01*
X47026D01*
Y86826D01*
X47126D01*
Y86925D01*
X47225D01*
Y87024D01*
Y87124D01*
Y87223D01*
X47324D01*
Y87322D01*
X47225D01*
Y87422D01*
X47324D01*
Y87521D01*
Y87620D01*
Y87719D01*
X47225D01*
Y87819D01*
X47324D01*
Y87719D01*
X47424D01*
Y87819D01*
Y87918D01*
Y88017D01*
X47523D01*
Y88117D01*
X47424D01*
Y88216D01*
X47523D01*
Y88315D01*
X47424D01*
Y88415D01*
X47523D01*
Y88514D01*
X47622D01*
Y88613D01*
X47523D01*
Y88713D01*
X47622D01*
Y88613D01*
X47722D01*
Y88713D01*
X47622D01*
Y88812D01*
X47722D01*
Y88911D01*
X47622D01*
Y89011D01*
X47722D01*
Y89110D01*
X47622D01*
Y89209D01*
X47722D01*
Y89309D01*
X47622D01*
Y89408D01*
X47722D01*
Y89309D01*
X47821D01*
Y89408D01*
X48318D01*
Y89309D01*
X48417D01*
Y89408D01*
X49112D01*
Y89309D01*
X49211D01*
Y89408D01*
X49907D01*
Y89309D01*
X50006D01*
Y89408D01*
X50701D01*
Y89309D01*
X50801D01*
Y89408D01*
X51099D01*
Y89309D01*
X51198D01*
Y89408D01*
X51496D01*
Y89309D01*
X51595D01*
Y89408D01*
X51695D01*
Y89309D01*
D02*
G37*
G36*
X97982Y86130D02*
X98081D01*
Y86031D01*
X97982D01*
Y86130D01*
X97883D01*
Y86229D01*
X97982D01*
Y86130D01*
D02*
G37*
G36*
X33021Y85336D02*
X33120D01*
Y85236D01*
X33021D01*
Y85336D01*
X32922D01*
Y85435D01*
X33021D01*
Y85336D01*
D02*
G37*
G36*
X32822D02*
X32922D01*
Y85236D01*
X32822D01*
Y85336D01*
X32723D01*
Y85435D01*
X32822D01*
Y85336D01*
D02*
G37*
G36*
X32624D02*
X32723D01*
Y85236D01*
X32624D01*
Y85336D01*
X32524D01*
Y85435D01*
X32624D01*
Y85336D01*
D02*
G37*
G36*
X32226D02*
X32326D01*
Y85236D01*
X32028D01*
Y85336D01*
X32127D01*
Y85435D01*
X32226D01*
Y85336D01*
D02*
G37*
G36*
X31829D02*
X31928D01*
Y85236D01*
X32028D01*
Y85137D01*
X31928D01*
Y85236D01*
X31829D01*
Y85336D01*
X31730D01*
Y85435D01*
X31829D01*
Y85336D01*
D02*
G37*
G36*
X37193Y84938D02*
X37093D01*
Y84839D01*
X36994D01*
Y84938D01*
X36895D01*
Y85038D01*
X37193D01*
Y84938D01*
D02*
G37*
G36*
X31034Y84740D02*
X31134D01*
Y84640D01*
X31233D01*
Y84541D01*
X31134D01*
Y84640D01*
X31034D01*
Y84740D01*
X30935D01*
Y84839D01*
X31034D01*
Y84740D01*
D02*
G37*
G36*
X30836D02*
X30935D01*
Y84640D01*
X31034D01*
Y84541D01*
X30935D01*
Y84640D01*
X30836D01*
Y84740D01*
X30736D01*
Y84839D01*
X30836D01*
Y84740D01*
D02*
G37*
G36*
X34710Y81859D02*
X34809D01*
Y81760D01*
X34511D01*
Y81660D01*
X34411D01*
Y81760D01*
X34312D01*
Y81859D01*
X34610D01*
Y81958D01*
X34710D01*
Y81859D01*
D02*
G37*
G36*
X34312Y81660D02*
X34411D01*
Y81561D01*
X34113D01*
Y81660D01*
X34213D01*
Y81760D01*
X34312D01*
Y81660D01*
D02*
G37*
G36*
X34113Y81462D02*
X34213D01*
Y81362D01*
X34113D01*
Y81462D01*
X34014D01*
Y81561D01*
X34113D01*
Y81462D01*
D02*
G37*
G36*
X34014Y81362D02*
X33915D01*
Y81263D01*
X33816D01*
Y81362D01*
X33716D01*
Y81462D01*
X34014D01*
Y81362D01*
D02*
G37*
G36*
X36895Y80866D02*
X36994D01*
Y80766D01*
X36895D01*
Y80866D01*
X36795D01*
Y80965D01*
X36895D01*
Y80866D01*
D02*
G37*
G36*
X41166Y79376D02*
X41265D01*
Y79277D01*
X41365D01*
Y79177D01*
X41265D01*
Y79277D01*
X41166D01*
Y79376D01*
X41067D01*
Y79475D01*
X41166D01*
Y79376D01*
D02*
G37*
G36*
X41365Y80369D02*
X41464D01*
Y80270D01*
X41563D01*
Y80171D01*
X41464D01*
Y80071D01*
X41563D01*
Y79972D01*
X41662D01*
Y79873D01*
X41762D01*
Y79773D01*
X41662D01*
Y79674D01*
X41762D01*
Y79575D01*
X41861D01*
Y79475D01*
X41960D01*
Y79376D01*
X41861D01*
Y79277D01*
X41960D01*
Y79177D01*
X42060D01*
Y79078D01*
X42159D01*
Y78979D01*
Y78879D01*
Y78780D01*
X42259D01*
Y78680D01*
X42358D01*
Y78581D01*
X42259D01*
Y78482D01*
X42358D01*
Y78382D01*
X42457D01*
Y78283D01*
X42557D01*
Y78184D01*
Y78085D01*
Y77985D01*
X42656D01*
Y77886D01*
X42755D01*
Y77787D01*
X42656D01*
Y77687D01*
X42854D01*
Y77588D01*
Y77489D01*
X42954D01*
Y77389D01*
X43053D01*
Y77290D01*
X43152D01*
Y77191D01*
X43053D01*
Y77290D01*
X42954D01*
Y77191D01*
X43053D01*
Y77091D01*
X43152D01*
Y76992D01*
X43053D01*
Y76893D01*
X43252D01*
Y76793D01*
Y76694D01*
X43351D01*
Y76595D01*
X43450D01*
Y76495D01*
X43550D01*
Y76396D01*
X43450D01*
Y76495D01*
X43351D01*
Y76396D01*
X43450D01*
Y76297D01*
X43550D01*
Y76197D01*
Y76098D01*
X43649D01*
Y75999D01*
Y75899D01*
X43749D01*
Y75800D01*
X43848D01*
Y75701D01*
X43947D01*
Y75601D01*
X43848D01*
Y75502D01*
X43947D01*
Y75403D01*
X44046D01*
Y75303D01*
X44146D01*
Y75204D01*
X44046D01*
Y75105D01*
X44146D01*
Y75005D01*
X44245D01*
Y74906D01*
X44344D01*
Y74807D01*
X44245D01*
Y74707D01*
X44344D01*
Y74608D01*
X44444D01*
Y74509D01*
X44543D01*
Y74409D01*
X44444D01*
Y74509D01*
X44344D01*
Y74608D01*
X44245D01*
Y74707D01*
X44146D01*
Y74807D01*
X44046D01*
Y74906D01*
Y75005D01*
X43947D01*
Y75105D01*
Y75204D01*
X43848D01*
Y75303D01*
X43749D01*
Y75403D01*
X43649D01*
Y75502D01*
X43749D01*
Y75601D01*
X43550D01*
Y75701D01*
Y75800D01*
X43450D01*
Y75899D01*
X43351D01*
Y75999D01*
X43252D01*
Y76098D01*
Y76197D01*
Y76297D01*
X43152D01*
Y76396D01*
X43053D01*
Y76495D01*
X42954D01*
Y76595D01*
X42854D01*
Y76694D01*
X42954D01*
Y76793D01*
X42656D01*
Y76893D01*
X42755D01*
Y76992D01*
X42656D01*
Y77091D01*
X42557D01*
Y77191D01*
X42457D01*
Y77290D01*
Y77389D01*
Y77489D01*
X42358D01*
Y77588D01*
X42259D01*
Y77687D01*
X42159D01*
Y77787D01*
X42060D01*
Y77886D01*
X42159D01*
Y77985D01*
X41960D01*
Y78085D01*
Y78184D01*
X41861D01*
Y78283D01*
X41762D01*
Y78382D01*
X41662D01*
Y78482D01*
X41762D01*
Y78581D01*
X41662D01*
Y78680D01*
X41563D01*
Y78780D01*
X41464D01*
Y78879D01*
X41365D01*
Y78979D01*
X41265D01*
Y79078D01*
X41563D01*
Y78979D01*
X41464D01*
Y78879D01*
X41563D01*
Y78780D01*
X41662D01*
Y78680D01*
X41762D01*
Y78581D01*
X41861D01*
Y78482D01*
X41960D01*
Y78382D01*
X42060D01*
Y78283D01*
X42159D01*
Y78184D01*
X42060D01*
Y78085D01*
X42159D01*
Y77985D01*
X42259D01*
Y77886D01*
X42358D01*
Y77787D01*
X42457D01*
Y77687D01*
X42557D01*
Y77588D01*
X42656D01*
Y77489D01*
X42755D01*
Y77588D01*
X42656D01*
Y77687D01*
X42557D01*
Y77787D01*
X42457D01*
Y77886D01*
X42557D01*
Y77985D01*
X42457D01*
Y78085D01*
X42358D01*
Y78184D01*
X42259D01*
Y78283D01*
X42358D01*
Y78382D01*
X42259D01*
Y78482D01*
X42159D01*
Y78581D01*
X42060D01*
Y78680D01*
X42159D01*
Y78780D01*
X42060D01*
Y78879D01*
X41960D01*
Y78979D01*
X41861D01*
Y79078D01*
X41960D01*
Y79177D01*
X41861D01*
Y79277D01*
X41762D01*
Y79376D01*
X41662D01*
Y79475D01*
X41762D01*
Y79575D01*
X41662D01*
Y79674D01*
X41563D01*
Y79773D01*
X41464D01*
Y79873D01*
X41563D01*
Y79972D01*
X41464D01*
Y80071D01*
X41365D01*
Y80171D01*
X41265D01*
Y80270D01*
X41365D01*
Y80369D01*
X41265D01*
Y80468D01*
X41365D01*
Y80369D01*
D02*
G37*
G36*
X44543Y74211D02*
X44642D01*
Y74111D01*
X44742D01*
Y74012D01*
X44642D01*
Y74111D01*
X44543D01*
Y74211D01*
X44444D01*
Y74310D01*
X44543D01*
Y74211D01*
D02*
G37*
%LPC*%
G36*
X34610Y93878D02*
X34511D01*
Y93779D01*
X34610D01*
Y93878D01*
D02*
G37*
G36*
X35405Y89110D02*
X35306D01*
Y89011D01*
X35405D01*
Y89110D01*
D02*
G37*
G36*
X32624D02*
X32524D01*
Y89011D01*
X32624D01*
Y89110D01*
D02*
G37*
G36*
X23585Y93977D02*
X23485D01*
Y93878D01*
X23187D01*
Y93977D01*
X23088D01*
Y93878D01*
X22591D01*
Y93779D01*
X22691D01*
Y93679D01*
X22591D01*
Y93580D01*
X22691D01*
Y93480D01*
X22591D01*
Y93381D01*
X22691D01*
Y93282D01*
X22591D01*
Y93183D01*
X22492D01*
Y93083D01*
X22393D01*
Y92984D01*
X22492D01*
Y92885D01*
X22393D01*
Y92785D01*
X22492D01*
Y92686D01*
X22393D01*
Y92587D01*
X22492D01*
Y92487D01*
X22591D01*
Y92388D01*
X22691D01*
Y92487D01*
X22790D01*
Y92388D01*
X23088D01*
Y92487D01*
X23187D01*
Y92388D01*
X23287D01*
Y92487D01*
X23386D01*
Y92388D01*
X23485D01*
Y92487D01*
X23386D01*
Y92587D01*
X23485D01*
Y92487D01*
X23585D01*
Y92587D01*
X23684D01*
Y92686D01*
X23783D01*
Y92587D01*
X23883D01*
Y92686D01*
X23783D01*
Y92785D01*
X23883D01*
Y92885D01*
X23982D01*
Y92984D01*
X24081D01*
Y93083D01*
X23982D01*
Y93183D01*
X24081D01*
Y93282D01*
X23982D01*
Y93381D01*
X24081D01*
Y93480D01*
X23982D01*
Y93580D01*
X24081D01*
Y93679D01*
X23982D01*
Y93779D01*
X23883D01*
Y93878D01*
X23585D01*
Y93977D01*
D02*
G37*
G36*
X22492Y92487D02*
X22393D01*
Y92388D01*
X22492D01*
Y92487D01*
D02*
G37*
G36*
X25075Y91494D02*
X24975D01*
Y91395D01*
X25075D01*
Y91494D01*
D02*
G37*
G36*
X23088Y91097D02*
X22989D01*
Y90997D01*
X23088D01*
Y90898D01*
X22989D01*
Y90997D01*
X22889D01*
Y91097D01*
X22790D01*
Y90997D01*
X22889D01*
Y90898D01*
X22790D01*
Y90997D01*
X22691D01*
Y91097D01*
X22591D01*
Y90997D01*
X22691D01*
Y90898D01*
X22591D01*
Y90997D01*
X22492D01*
Y91097D01*
X22393D01*
Y90997D01*
X22492D01*
Y90898D01*
X22393D01*
Y90997D01*
X22293D01*
Y91097D01*
X22194D01*
Y90997D01*
X22293D01*
Y90898D01*
X22194D01*
Y90997D01*
X22095D01*
Y90898D01*
X21995D01*
Y90799D01*
X21896D01*
Y90699D01*
X21797D01*
Y90600D01*
X21896D01*
Y90501D01*
X21797D01*
Y90401D01*
X21896D01*
Y90302D01*
X21797D01*
Y90203D01*
X21896D01*
Y90103D01*
X21797D01*
Y90004D01*
Y89905D01*
Y89805D01*
X21697D01*
Y89706D01*
X21598D01*
Y89607D01*
X21697D01*
Y89507D01*
X21598D01*
Y89408D01*
Y89309D01*
Y89209D01*
X21697D01*
Y89110D01*
X21797D01*
Y89011D01*
X21896D01*
Y89110D01*
X21797D01*
Y89209D01*
X21896D01*
Y89110D01*
X21995D01*
Y89209D01*
X22095D01*
Y89110D01*
X22194D01*
Y89011D01*
X22293D01*
Y89110D01*
X22194D01*
Y89209D01*
X22293D01*
Y89110D01*
X22393D01*
Y89209D01*
X22492D01*
Y89110D01*
X22591D01*
Y89011D01*
X22691D01*
Y89110D01*
X22591D01*
Y89209D01*
X22691D01*
Y89110D01*
X22790D01*
Y89209D01*
X22889D01*
Y89309D01*
X22989D01*
Y89408D01*
X23187D01*
Y89507D01*
Y89607D01*
X23287D01*
Y89706D01*
X23386D01*
Y89805D01*
X23485D01*
Y89905D01*
X23386D01*
Y90004D01*
X23485D01*
Y90103D01*
X23386D01*
Y90203D01*
X23485D01*
Y90302D01*
Y90401D01*
Y90501D01*
X23386D01*
Y90600D01*
X23485D01*
Y90699D01*
X23386D01*
Y90799D01*
X23287D01*
Y90898D01*
X23187D01*
Y90997D01*
X23088D01*
Y91097D01*
D02*
G37*
G36*
X29644Y85137D02*
X29544D01*
Y85038D01*
X29445D01*
Y85137D01*
X29346D01*
Y85038D01*
X29445D01*
Y84938D01*
X29544D01*
Y84839D01*
X29644D01*
Y84938D01*
X29743D01*
Y84839D01*
X29842D01*
Y84938D01*
X29743D01*
Y85038D01*
X29644D01*
Y85137D01*
D02*
G37*
G36*
X37987Y84938D02*
X37888D01*
Y84839D01*
X37987D01*
Y84938D01*
D02*
G37*
G36*
X37391Y83349D02*
X37292D01*
Y83250D01*
X37391D01*
Y83349D01*
D02*
G37*
G36*
X37987Y83746D02*
X37689D01*
Y83647D01*
X37590D01*
Y83548D01*
X37292D01*
Y83448D01*
X37391D01*
Y83349D01*
X37491D01*
Y83250D01*
X37590D01*
Y83150D01*
X37689D01*
Y83250D01*
X37789D01*
Y83349D01*
X37689D01*
Y83448D01*
X37789D01*
Y83548D01*
X37888D01*
Y83647D01*
X37987D01*
Y83746D01*
D02*
G37*
G36*
X38583Y82753D02*
X38484D01*
Y82654D01*
X38583D01*
Y82753D01*
D02*
G37*
G36*
X40967Y81561D02*
X40868D01*
Y81462D01*
X40967D01*
Y81561D01*
D02*
G37*
G36*
X42557Y80369D02*
X42457D01*
Y80270D01*
X42557D01*
Y80369D01*
D02*
G37*
G36*
X43947Y79773D02*
X43848D01*
Y79674D01*
X43947D01*
Y79773D01*
D02*
G37*
G36*
X44146Y79575D02*
X44046D01*
Y79475D01*
X44146D01*
Y79575D01*
D02*
G37*
G36*
X43749D02*
X43649D01*
Y79475D01*
X43749D01*
Y79575D01*
D02*
G37*
G36*
X44940Y78780D02*
X44841D01*
Y78680D01*
X44940D01*
Y78780D01*
D02*
G37*
G36*
X45536Y78581D02*
X45437D01*
Y78482D01*
X45536D01*
Y78581D01*
D02*
G37*
G36*
X45735Y78382D02*
X45636D01*
Y78283D01*
X45735D01*
Y78382D01*
D02*
G37*
G36*
X46728Y77389D02*
X46629D01*
Y77290D01*
X46728D01*
Y77389D01*
D02*
G37*
G36*
X74540Y87719D02*
X74441D01*
Y87620D01*
X74540D01*
Y87719D01*
D02*
G37*
G36*
X71958Y83150D02*
X71859D01*
Y83051D01*
X71958D01*
Y83150D01*
D02*
G37*
G36*
X64409Y89110D02*
X64310D01*
Y89011D01*
X64409D01*
Y89110D01*
D02*
G37*
G36*
X62025Y87918D02*
X61926D01*
Y87819D01*
X62025D01*
Y87719D01*
X61926D01*
Y87819D01*
X61826D01*
Y87719D01*
X61727D01*
Y87819D01*
X61628D01*
Y87719D01*
X61330D01*
Y87620D01*
X61230D01*
Y87521D01*
X61131D01*
Y87620D01*
X61032D01*
Y87521D01*
X60932D01*
Y87422D01*
X60833D01*
Y87521D01*
X60734D01*
Y87422D01*
X60833D01*
Y87322D01*
X60535D01*
Y87223D01*
X60634D01*
Y87124D01*
X60336D01*
Y87024D01*
X60436D01*
Y86925D01*
X60336D01*
Y86826D01*
X60237D01*
Y86726D01*
X60138D01*
Y86627D01*
X60237D01*
Y86528D01*
X60138D01*
Y86428D01*
X60038D01*
Y86329D01*
X59939D01*
Y86229D01*
X60038D01*
Y86130D01*
X59939D01*
Y86031D01*
X59840D01*
Y85931D01*
X59740D01*
Y85832D01*
X59840D01*
Y85733D01*
X59740D01*
Y85634D01*
Y85534D01*
Y85435D01*
X59641D01*
Y85336D01*
Y85236D01*
Y85137D01*
X59542D01*
Y85038D01*
X59641D01*
Y84938D01*
X59542D01*
Y84839D01*
Y84740D01*
Y84640D01*
X59641D01*
Y84541D01*
X59542D01*
Y84640D01*
X59442D01*
Y84541D01*
X59542D01*
Y84442D01*
X59442D01*
Y84342D01*
X59542D01*
Y84243D01*
X59442D01*
Y84144D01*
X59542D01*
Y84044D01*
X59442D01*
Y83945D01*
X59542D01*
Y83846D01*
X59641D01*
Y83746D01*
X59542D01*
Y83647D01*
X59641D01*
Y83548D01*
X59542D01*
Y83448D01*
X59641D01*
Y83349D01*
X59740D01*
Y83250D01*
X59840D01*
Y83150D01*
X59939D01*
Y83051D01*
X60038D01*
Y82952D01*
X60138D01*
Y82852D01*
X60237D01*
Y82952D01*
X60336D01*
Y82852D01*
X61230D01*
Y82952D01*
X61330D01*
Y82852D01*
X61429D01*
Y82952D01*
X61528D01*
Y83051D01*
X61826D01*
Y83150D01*
X61926D01*
Y83051D01*
X62025D01*
Y83150D01*
X61926D01*
Y83250D01*
X62025D01*
Y83349D01*
X62124D01*
Y83250D01*
X62224D01*
Y83349D01*
X62124D01*
Y83448D01*
X62224D01*
Y83548D01*
X62323D01*
Y83448D01*
X62422D01*
Y83548D01*
X62323D01*
Y83647D01*
X62422D01*
Y83746D01*
X62522D01*
Y83846D01*
X62621D01*
Y83945D01*
Y84044D01*
X62720D01*
Y84144D01*
Y84243D01*
X62820D01*
Y84342D01*
X62919D01*
Y84442D01*
Y84541D01*
Y84640D01*
X63018D01*
Y84740D01*
Y84839D01*
Y84938D01*
X63118D01*
Y85038D01*
X63217D01*
Y85137D01*
X63118D01*
Y85236D01*
X63217D01*
Y85336D01*
X63118D01*
Y85435D01*
X63217D01*
Y85534D01*
Y85634D01*
Y85733D01*
X63118D01*
Y85832D01*
X63217D01*
Y85733D01*
X63316D01*
Y85832D01*
Y85931D01*
Y86031D01*
X63416D01*
Y86130D01*
X63316D01*
Y86229D01*
X63416D01*
Y86329D01*
X63316D01*
Y86428D01*
X63416D01*
Y86528D01*
X63316D01*
Y86627D01*
Y86726D01*
Y86826D01*
X63217D01*
Y86925D01*
X63118D01*
Y87024D01*
X63217D01*
Y87124D01*
X63118D01*
Y87223D01*
Y87322D01*
Y87422D01*
X63018D01*
Y87521D01*
X62919D01*
Y87620D01*
X62621D01*
Y87719D01*
X62323D01*
Y87819D01*
X62224D01*
Y87719D01*
X62124D01*
Y87819D01*
X62025D01*
Y87918D01*
D02*
G37*
G36*
X57853Y82157D02*
X57754D01*
Y82058D01*
X57853D01*
Y82157D01*
D02*
G37*
G36*
X58250Y81760D02*
X58151D01*
Y81660D01*
X58250D01*
Y81760D01*
D02*
G37*
G36*
X105034Y87620D02*
X104935D01*
Y87521D01*
X105034D01*
Y87620D01*
D02*
G37*
G36*
X85864Y84342D02*
X85765D01*
Y84243D01*
X85864D01*
Y84342D01*
D02*
G37*
G36*
X84672Y82356D02*
X84573D01*
Y82256D01*
X84672D01*
Y82356D01*
D02*
G37*
G36*
X50900Y87719D02*
X50205D01*
Y87620D01*
X50106D01*
Y87719D01*
X49808D01*
Y87620D01*
X49708D01*
Y87719D01*
X49609D01*
Y87620D01*
Y87521D01*
Y87422D01*
X49708D01*
Y87322D01*
X49609D01*
Y87422D01*
X49510D01*
Y87322D01*
X49410D01*
Y87223D01*
X49510D01*
Y87124D01*
X49410D01*
Y87024D01*
X49510D01*
Y86925D01*
X49410D01*
Y86826D01*
X49510D01*
Y86726D01*
X49410D01*
Y86627D01*
X49311D01*
Y86528D01*
X49410D01*
Y86428D01*
X49311D01*
Y86329D01*
X49211D01*
Y86229D01*
X49311D01*
Y86130D01*
X49211D01*
Y86031D01*
X49311D01*
Y85931D01*
X49211D01*
Y85832D01*
X49112D01*
Y85733D01*
X49013D01*
Y85634D01*
X49112D01*
Y85534D01*
X49013D01*
Y85435D01*
X49112D01*
Y85336D01*
X49211D01*
Y85435D01*
X49311D01*
Y85336D01*
X49410D01*
Y85435D01*
X49510D01*
Y85336D01*
X49609D01*
Y85435D01*
X49708D01*
Y85336D01*
X50006D01*
Y85435D01*
X50106D01*
Y85336D01*
X50205D01*
Y85435D01*
X50304D01*
Y85336D01*
X50403D01*
Y85435D01*
X50701D01*
Y85534D01*
X50801D01*
Y85634D01*
X50900D01*
Y85733D01*
X50999D01*
Y85832D01*
X51099D01*
Y85931D01*
X50999D01*
Y86031D01*
X51198D01*
Y86130D01*
Y86229D01*
X51297D01*
Y86329D01*
X51198D01*
Y86428D01*
X51297D01*
Y86528D01*
Y86627D01*
Y86726D01*
X51397D01*
Y86826D01*
X51297D01*
Y86925D01*
X51397D01*
Y86826D01*
X51496D01*
Y86925D01*
X51397D01*
Y87024D01*
Y87124D01*
Y87223D01*
X51297D01*
Y87322D01*
X51198D01*
Y87422D01*
X51297D01*
Y87521D01*
X50999D01*
Y87620D01*
X50900D01*
Y87719D01*
D02*
G37*
G36*
Y83945D02*
X50801D01*
Y83846D01*
X50900D01*
Y83945D01*
D02*
G37*
G36*
X48715Y83746D02*
X48616D01*
Y83647D01*
X48715D01*
Y83746D01*
D02*
G37*
G36*
X42557Y77588D02*
X42457D01*
Y77489D01*
X42557D01*
Y77588D01*
D02*
G37*
G36*
X42755Y77389D02*
X42656D01*
Y77290D01*
X42755D01*
Y77389D01*
D02*
G37*
%LPD*%
D10*
X67721Y134232D02*
G03*
X66933Y134232I-394J0D01*
G01*
D02*
G03*
X67721Y134232I394J0D01*
G01*
X7200Y-18550D02*
X162800D01*
X7200D02*
Y56950D01*
X162800D01*
Y-18550D02*
Y56950D01*
D11*
X123292Y59700D02*
G03*
X123292Y59700I-492J0D01*
G01*
D12*
X38843Y103032D02*
Y131969D01*
Y103032D02*
X130811D01*
Y131969D01*
X38843D02*
X130811D01*
D13*
X58911Y74348D02*
Y76847D01*
X57661Y75598D01*
X59328D01*
X61827Y76847D02*
X60161D01*
Y75598D01*
X60994Y76014D01*
X61410D01*
X61827Y75598D01*
Y74765D01*
X61410Y74348D01*
X60577D01*
X60161Y74765D01*
X62660Y76431D02*
X63076Y76847D01*
X63909D01*
X64326Y76431D01*
Y74765D01*
X63909Y74348D01*
X63076D01*
X62660Y74765D01*
Y76431D01*
X65159Y74765D02*
X65575Y74348D01*
X66409D01*
X66825Y74765D01*
Y76431D01*
X66409Y76847D01*
X65575D01*
X65159Y76431D01*
Y76014D01*
X65575Y75598D01*
X66825D01*
X67658D02*
X69324D01*
X70157Y76847D02*
Y74348D01*
X70990Y75181D01*
X71824Y74348D01*
Y76847D01*
X72657D02*
Y74348D01*
X73906D01*
X74323Y74765D01*
Y75181D01*
X73906Y75598D01*
X72657D01*
X73906D01*
X74323Y76014D01*
Y76431D01*
X73906Y76847D01*
X72657D01*
X75156Y75598D02*
X76822D01*
X77655Y74348D02*
Y76014D01*
X78488Y76847D01*
X79321Y76014D01*
Y74348D01*
Y75598D01*
X77655D01*
X80154Y76847D02*
Y75181D01*
X80987Y74348D01*
X81820Y75181D01*
Y76847D01*
X82653Y75598D02*
X84319D01*
X85153Y76847D02*
X85986D01*
X85569D01*
Y74348D01*
X85153D01*
X85986D01*
X87235D02*
Y76847D01*
X88068Y76014D01*
X88901Y76847D01*
Y74348D01*
X89734Y76847D02*
Y74765D01*
X90151Y74348D01*
X90984D01*
X91400Y74765D01*
Y76847D01*
X92234D02*
Y74348D01*
X93483D01*
X93900Y74765D01*
Y75181D01*
X93483Y75598D01*
X92234D01*
X93483D01*
X93900Y76014D01*
Y76431D01*
X93483Y76847D01*
X92234D01*
X94733Y74348D02*
Y76847D01*
X95982D01*
X96399Y76431D01*
Y75598D01*
X95982Y75181D01*
X94733D01*
X95566D02*
X96399Y74348D01*
X57661Y70149D02*
Y72648D01*
X58911D01*
X59328Y72232D01*
Y71399D01*
X58911Y70982D01*
X57661D01*
X58495D02*
X59328Y70149D01*
X61827Y72648D02*
X60161D01*
Y70149D01*
X61827D01*
X60161Y71399D02*
X60994D01*
X62660Y72648D02*
Y70982D01*
X63493Y70149D01*
X64326Y70982D01*
Y72648D01*
X65159Y70149D02*
Y70566D01*
X65575D01*
Y70149D01*
X65159D01*
X69741D02*
Y71815D01*
X70574Y72648D01*
X71407Y71815D01*
Y70149D01*
Y71399D01*
X69741D01*
X57661Y65950D02*
Y67616D01*
X58495Y68449D01*
X59328Y67616D01*
Y65950D01*
Y67200D01*
X57661D01*
X60161Y68449D02*
Y66366D01*
X60577Y65950D01*
X61410D01*
X61827Y66366D01*
Y68449D01*
X64326Y68033D02*
X63909Y68449D01*
X63076D01*
X62660Y68033D01*
Y66366D01*
X63076Y65950D01*
X63909D01*
X64326Y66366D01*
Y67200D01*
X63493D01*
X65159Y65950D02*
Y66366D01*
X65575D01*
Y65950D01*
X65159D01*
X71407D02*
X69741D01*
X71407Y67616D01*
Y68033D01*
X70990Y68449D01*
X70157D01*
X69741Y68033D01*
X72240D02*
X72657Y68449D01*
X73490D01*
X73906Y68033D01*
Y66366D01*
X73490Y65950D01*
X72657D01*
X72240Y66366D01*
Y68033D01*
X76405Y65950D02*
X74739D01*
X76405Y67616D01*
Y68033D01*
X75989Y68449D01*
X75156D01*
X74739Y68033D01*
X77238D02*
X77655Y68449D01*
X78488D01*
X78904Y68033D01*
Y66366D01*
X78488Y65950D01*
X77655D01*
X77238Y66366D01*
Y68033D01*
D14*
X137827Y110164D02*
X135828D01*
X136827D01*
Y105166D01*
X135828Y104166D01*
X134828D01*
X133828Y105166D01*
X143825Y104166D02*
X139826D01*
X143825Y108165D01*
Y109165D01*
X142825Y110164D01*
X140826D01*
X139826Y109165D01*
X11000Y65499D02*
X9001D01*
X10000D01*
Y60501D01*
X9001Y59501D01*
X8001D01*
X7001Y60501D01*
X12999Y59501D02*
X14999D01*
X13999D01*
Y65499D01*
X12999Y64499D01*
M02*
