G04*
G04 #@! TF.GenerationSoftware,Altium Limited,Altium Designer,20.0.11 (256)*
G04*
G04 Layer_Physical_Order=2*
G04 Layer_Color=16711680*
%FSLAX25Y25*%
%MOIN*%
G70*
G01*
G75*
%ADD18C,0.06265*%
%ADD19R,0.06265X0.06265*%
%ADD20C,0.18996*%
%ADD21C,0.01200*%
%ADD22C,0.13780*%
%ADD23C,0.16949*%
%ADD24C,0.03543*%
D18*
X117400Y38400D02*
D03*
X106600D02*
D03*
X95800D02*
D03*
X85000D02*
D03*
X74200D02*
D03*
X63400D02*
D03*
X52600D02*
D03*
X112000Y49600D02*
D03*
X101200D02*
D03*
X90400D02*
D03*
X79600D02*
D03*
X68800D02*
D03*
X58000D02*
D03*
X47200D02*
D03*
D19*
X122800D02*
D03*
D20*
X150600Y44000D02*
D03*
X19400D02*
D03*
D21*
X64300Y64900D02*
X79600Y49600D01*
X64300Y64900D02*
Y122600D01*
X64400Y122700D01*
X84292D01*
X87327Y119665D01*
X87492Y124500D02*
X92327Y119665D01*
X63600Y124500D02*
X87492D01*
X62500Y123400D02*
X63600Y124500D01*
X62500Y55900D02*
Y123400D01*
Y55900D02*
X68800Y49600D01*
X90692Y126300D02*
X97327Y119665D01*
X61800Y126300D02*
X90692D01*
X60700Y125200D02*
X61800Y126300D01*
X60700Y52300D02*
Y125200D01*
X58000Y49600D02*
X60700Y52300D01*
X91192Y130800D02*
X102327Y119665D01*
X43900Y130800D02*
X91192D01*
X39300Y126200D02*
X43900Y130800D01*
X39300Y57500D02*
Y126200D01*
Y57500D02*
X47200Y49600D01*
X111800Y44000D02*
X117400Y38400D01*
X87700Y44000D02*
X111800D01*
X84300Y47400D02*
X87700Y44000D01*
X84300Y47400D02*
Y100861D01*
X69827Y115335D02*
X84300Y100861D01*
X79827Y115335D02*
X117500Y77661D01*
Y44900D02*
Y77661D01*
Y44900D02*
X121800Y40600D01*
Y36100D02*
Y40600D01*
X119200Y33500D02*
X121800Y36100D01*
X100700Y33500D02*
X119200D01*
X95800Y38400D02*
X100700Y33500D01*
X52600Y38400D02*
X62300Y28700D01*
X127200D01*
X129000Y30500D01*
Y86161D01*
X99827Y115335D02*
X129000Y86161D01*
X94827Y115335D02*
X127200Y82961D01*
Y34300D02*
Y82961D01*
X123800Y30900D02*
X127200Y34300D01*
X70900Y30900D02*
X123800D01*
X63400Y38400D02*
X70900Y30900D01*
D22*
X19400Y75000D02*
D03*
X150600D02*
D03*
D23*
X120654Y117500D02*
D03*
X49000D02*
D03*
D24*
X99827Y115335D02*
D03*
X94827D02*
D03*
X89827D02*
D03*
X84827D02*
D03*
X79827D02*
D03*
X74827D02*
D03*
X69827D02*
D03*
X102327Y119665D02*
D03*
X97327D02*
D03*
X92327D02*
D03*
X87327D02*
D03*
X82327D02*
D03*
X77327D02*
D03*
X72327D02*
D03*
X67327D02*
D03*
M02*
